<svg width="32" height="33" viewBox="0 0 32 33" fill="none" xmlns="http://www.w3.org/2000/svg">
<path d="M0.950195 7.83365C0.950195 4.04604 4.02066 0.975586 7.80826 0.975586H25.1418C28.9294 0.975586 31.9999 4.04605 31.9999 7.83365V25.1672C31.9999 28.9548 28.9294 32.0253 25.1418 32.0253H7.80825C4.02065 32.0253 0.950195 28.9548 0.950195 25.1672V7.83365Z" fill="white"/>
<path fill-rule="evenodd" clip-rule="evenodd" d="M7.80826 0.975586C4.02066 0.975586 0.950195 4.04604 0.950195 7.83365V25.1672C0.950195 28.9548 4.02065 32.0253 7.80825 32.0253H25.1418C28.9294 32.0253 31.9999 28.9548 31.9999 25.1672V7.83365C31.9999 4.04605 28.9294 0.975586 25.1418 0.975586H7.80826ZM24.691 11.7782C25.625 11.7782 26.3821 11.0211 26.3821 10.0871C26.3821 9.15311 25.625 8.39596 24.691 8.39596C23.757 8.39596 22.9999 9.15311 22.9999 10.0871C22.9999 11.0211 23.757 11.7782 24.691 11.7782ZM13.7277 11.4325C13.3385 11.4325 12.6685 11.8033 12.32 12.9411L12.3193 12.9433L9.01857 23.5855C8.79895 24.2936 8.04689 24.6896 7.3388 24.4699C6.63071 24.2503 6.23473 23.4983 6.45435 22.7902L9.75302 12.1548L9.75376 12.1524C10.2904 10.4031 11.6967 8.74782 13.7277 8.74782C15.7582 8.74782 17.1624 10.3997 17.6999 12.1463L17.7003 12.1478L20.2413 20.3396L20.2418 20.3412C20.5906 21.4758 21.2594 21.8455 21.6483 21.8455C22.602 21.8455 23.375 21.0725 23.375 20.1188V14.5103C23.375 13.7689 23.976 13.1679 24.7173 13.1679C25.4587 13.1679 26.0597 13.7689 26.0597 14.5103V20.1188C26.0597 22.5552 24.0847 24.5302 21.6483 24.5302C19.62 24.5302 18.214 22.8791 17.6762 21.1321L17.6756 21.1302L15.1347 12.9384L15.1342 12.9368C14.7852 11.8016 14.1178 11.4325 13.7277 11.4325Z" fill="black"/>
<path fill-rule="evenodd" clip-rule="evenodd" d="M7.80826 0.975586C4.02066 0.975586 0.950195 4.04604 0.950195 7.83365V25.1672C0.950195 28.9548 4.02065 32.0253 7.80825 32.0253H25.1418C28.9294 32.0253 31.9999 28.9548 31.9999 25.1672V7.83365C31.9999 4.04605 28.9294 0.975586 25.1418 0.975586H7.80826ZM24.691 11.7782C25.625 11.7782 26.3821 11.0211 26.3821 10.0871C26.3821 9.15311 25.625 8.39596 24.691 8.39596C23.757 8.39596 22.9999 9.15311 22.9999 10.0871C22.9999 11.0211 23.757 11.7782 24.691 11.7782ZM13.7277 11.4325C13.3385 11.4325 12.6685 11.8033 12.32 12.9411L12.3193 12.9433L9.01857 23.5855C8.79895 24.2936 8.04689 24.6896 7.3388 24.4699C6.63071 24.2503 6.23473 23.4983 6.45435 22.7902L9.75302 12.1548L9.75376 12.1524C10.2904 10.4031 11.6967 8.74782 13.7277 8.74782C15.7582 8.74782 17.1624 10.3997 17.6999 12.1463L17.7003 12.1478L20.2413 20.3396L20.2418 20.3412C20.5906 21.4758 21.2594 21.8455 21.6483 21.8455C22.602 21.8455 23.375 21.0725 23.375 20.1188V14.5103C23.375 13.7689 23.976 13.1679 24.7173 13.1679C25.4587 13.1679 26.0597 13.7689 26.0597 14.5103V20.1188C26.0597 22.5552 24.0847 24.5302 21.6483 24.5302C19.62 24.5302 18.214 22.8791 17.6762 21.1321L17.6756 21.1302L15.1347 12.9384L15.1342 12.9368C14.7852 11.8016 14.1178 11.4325 13.7277 11.4325Z" fill="url(#paint0_linear_602_5059)"/>
<defs>
<linearGradient id="paint0_linear_602_5059" x1="33.851" y1="32.0223" x2="15.1286" y2="-7.67596" gradientUnits="userSpaceOnUse">
<stop offset="0.297344" stop-color="#7C52FF"/>
<stop offset="0.762314" stop-color="#F9008E"/>
<stop offset="1" stop-color="#F6AB3C"/>
</linearGradient>
</defs>
</svg>
