<svg width="87" height="87" fill="none" xmlns="http://www.w3.org/2000/svg">
  <g fill="#E01E5A">
    <path
      d="M18.279 54.977c0 5.03-4.11 9.14-9.14 9.14S0 60.006 0 54.976s4.11-9.14 9.14-9.14h9.139v9.14zM22.883 54.977c0-5.03 4.11-9.14 9.14-9.14s9.139 4.11 9.139 9.14v22.884c0 5.03-4.11 9.139-9.14 9.139s-9.139-4.11-9.139-9.14V54.978z" />
  </g>
  <g fill="#36C5F0">
    <path
      d="M32.023 18.279c-5.03 0-9.14-4.11-9.14-9.14S26.993 0 32.023 0s9.139 4.11 9.139 9.14v9.139h-9.14zM32.023 22.884c5.03 0 9.139 4.109 9.139 9.139 0 5.03-4.11 9.14-9.14 9.14H9.14c-5.03 0-9.139-4.11-9.139-9.14s4.11-9.14 9.14-9.14h22.883z" />
  </g>
  <g fill="#2EB67D">
    <path
      d="M68.722 32.023c0-5.03 4.109-9.14 9.139-9.14 5.03 0 9.14 4.11 9.14 9.14s-4.11 9.14-9.14 9.14h-9.14v-9.14zM64.117 32.023c0 5.03-4.11 9.14-9.14 9.14s-9.139-4.11-9.139-9.14V9.139c0-5.03 4.11-9.139 9.14-9.139s9.139 4.11 9.139 9.14v22.883z" />
  </g>
  <g fill="#ECB22E">
    <path
      d="M54.977 68.722c5.03 0 9.14 4.109 9.14 9.139 0 5.03-4.11 9.14-9.14 9.14s-9.139-4.11-9.139-9.14v-9.14h9.14zM54.977 64.116c-5.03 0-9.139-4.109-9.139-9.139 0-5.03 4.11-9.14 9.14-9.14H77.86c5.03 0 9.14 4.11 9.14 9.14s-4.11 9.14-9.14 9.14H54.977z" />
  </g>
</svg>