<svg width="88" height="63" fill="none" xmlns="http://www.w3.org/2000/svg">
  <g fill="#139CD8">
    <path
      d="M34.752 27.116a1.629 1.629 0 00-1.459.742 2.96 2.96 0 00-.41 1.202h3.629a2.526 2.526 0 00-.337-1.204 1.579 1.579 0 00-1.423-.74zM75.605 27.116a1.624 1.624 0 00-1.458.742 2.96 2.96 0 00-.413 1.202h3.632a2.526 2.526 0 00-.34-1.204 1.577 1.577 0 00-1.42-.74zM55.261 27.15c-.669 0-1.146.23-1.46.706-.314.476-.476 1.17-.476 2.04 0 .871.16 1.564.476 2.05.316.485.79.716 1.46.716.671 0 1.149-.235 1.469-.717.32-.481.483-1.174.483-2.048 0-.875-.163-1.56-.483-2.041-.32-.482-.796-.707-1.469-.707zM21.864 30.447a1.117 1.117 0 00-.456.987c-.014.231.04.462.154.663a.987.987 0 00.294.304s.458.36 1.496.296c.464-.03.925-.09 1.381-.181V30.19c-.457-.07-.919-.11-1.381-.119-1.05-.008-1.49.375-1.488.375z" />
    <path
      d="M69.034 9.326a18.765 18.765 0 00-7.674 1.63c-2.7-4.808-7.768-8.048-13.577-8.048a15.424 15.424 0 00-11.16 4.784A17.09 17.09 0 007.343 24.84 14.86 14.86 0 000 37.69c0 8.197 6.576 14.842 14.688 14.842 1.014 0 2.026-.104 3.02-.313a15.823 15.823 0 0029.406.714 13.869 13.869 0 0018.173-5.706 18.99 18.99 0 003.739.371C79.504 47.598 88 39.031 88 28.454c0-10.576-8.489-19.128-18.966-19.128zm-50.19 22.21c0 1.546-1.12 2.507-2.927 2.507a5.338 5.338 0 01-3.134-.92c-.018-.023-.093-.053-.037-.197l.357-.986a.142.142 0 01.237-.081c.098.059.171.112.298.187a4.257 4.257 0 002.325.667c.79 0 1.27-.416 1.27-.975v-.031c0-.61-.747-.84-1.616-1.106l-.197-.06c-1.184-.34-2.467-.83-2.467-2.338v-.03c0-1.43 1.155-2.429 2.808-2.429h.18a5.102 5.102 0 012.591.697.166.166 0 01.09.197c-.032.09-.332.898-.368.987-.063.17-.239.058-.239.058a5.21 5.21 0 00-2.293-.593c-.7 0-1.153.373-1.153.877v.03c0 .591.774.84 1.668 1.132l.156.05c1.184.374 2.451.894 2.451 2.322v.036zm7.391 2.01s-.197.051-.357.09c-.16.04-.79.165-1.285.252a9.352 9.352 0 01-1.549.128 6.18 6.18 0 01-1.352-.138 2.815 2.815 0 01-1.038-.45 2.106 2.106 0 01-.665-.79 2.666 2.666 0 01-.233-1.166 2.445 2.445 0 01.272-1.175c.18-.333.433-.621.74-.842a3.29 3.29 0 011.064-.492c.41-.11.833-.164 1.258-.162.321 0 .592 0 .789.024 0 0 .395.036.84.099v-.215c0-.681-.14-1.003-.418-1.216a2.058 2.058 0 00-1.26-.332s-1.242-.013-2.223.52a.79.79 0 01-.085.04.128.128 0 01-.168-.082l-.361-.969a.16.16 0 01.047-.197c.458-.36 1.58-.577 1.58-.577.451-.078.909-.12 1.367-.124 1.018 0 1.808.237 2.345.705.537.467.809 1.227.809 2.252v4.665a.16.16 0 01-.117.152zm3.425.148a.147.147 0 01-.146.154h-1.352a.146.146 0 01-.146-.154V22.808a.147.147 0 01.146-.154h1.352a.144.144 0 01.106.045.147.147 0 01.04.109v10.886zm8.447-3.503a.148.148 0 01-.148.132h-5.1c.032.776.217 1.325.592 1.697.375.373.953.593 1.745.593.72.03 1.44-.097 2.105-.373a.144.144 0 01.119 0 .146.146 0 01.079.088l.335.934c.066.158.012.211-.045.245-.32.175-1.095.505-2.566.509a5.1 5.1 0 01-1.853-.3 3.259 3.259 0 01-2.039-2.143 5.448 5.448 0 01-.23-1.629 5.744 5.744 0 01.222-1.626 3.67 3.67 0 01.691-1.324c.32-.383.721-.69 1.174-.896a3.984 3.984 0 011.686-.328c.502-.001.999.1 1.46.296.37.177.7.428.97.738.3.347.522.754.65 1.194.2.713.252 1.46.153 2.193zm4.24 3.852a5.267 5.267 0 01-3.135-.92c-.018-.023-.093-.053-.038-.197l.358-.986a.153.153 0 01.17-.11.153.153 0 01.067.029c.094.06.17.112.298.187a4.257 4.257 0 002.325.667c.789 0 1.272-.416 1.272-.975v-.031c0-.61-.75-.84-1.62-1.106l-.197-.06c-1.184-.34-2.465-.83-2.465-2.338v-.03c0-1.43 1.154-2.429 2.806-2.429h.18a5.097 5.097 0 012.593.697.166.166 0 01.089.197l-.367.987c-.063.17-.24.058-.24.058a5.202 5.202 0 00-2.294-.593c-.699 0-1.15.373-1.15.877v.03c0 .591.77.84 1.667 1.132l.156.05c1.184.374 2.451.894 2.451 2.322v.03c0 1.551-1.121 2.512-2.927 2.512zm8.91-6.895a.172.172 0 01-.172.148h-1.68l-1.148 6.503a10.001 10.001 0 01-.448 1.713 3.43 3.43 0 01-.663 1.142c-.256.293-.58.519-.943.658a3.712 3.712 0 01-1.252.197 3.073 3.073 0 01-.748-.07 3.68 3.68 0 01-.466-.137.152.152 0 01-.078-.197c.035-.103.337-.928.379-1.037a.14.14 0 01.183-.082c.088.04.181.07.276.088a1.95 1.95 0 001-.04.959.959 0 00.469-.36c.155-.222.275-.467.355-.727.135-.41.236-.83.304-1.257l1.145-6.384h-1.127c-.136 0-.18-.064-.166-.164l.197-1.06a.173.173 0 01.172-.15h1.159l.06-.345c.174-1.023.52-1.802 1.027-2.314.507-.51 1.236-.78 2.16-.78a3.74 3.74 0 01.692.056c.17.027.34.067.505.119a.133.133 0 01.101.122.135.135 0 01-.008.055l-.395 1.072c-.033.08-.055.13-.22.077a3.55 3.55 0 00-.263-.063 2.145 2.145 0 00-.419-.042 1.752 1.752 0 00-.546.08 1.05 1.05 0 00-.427.265 1.473 1.473 0 00-.359.545 6.814 6.814 0 00-.268 1.149h1.63c.136 0 .18.063.166.164l-.184 1.056zm7.466 4.37a3.65 3.65 0 01-.685 1.308 3.224 3.224 0 01-1.158.872 4.285 4.285 0 01-3.229 0 3.241 3.241 0 01-1.159-.872 3.635 3.635 0 01-.684-1.309 5.99 5.99 0 010-3.238c.136-.48.369-.925.684-1.309.316-.375.711-.676 1.157-.88a4.17 4.17 0 013.23 0c.447.203.843.503 1.16.878.314.386.547.832.684 1.31a5.99 5.99 0 010 3.24zm6.306-5.33c-.047.139-.296.837-.383 1.07-.034.089-.089.15-.187.14a2.763 2.763 0 00-.56-.07c-.232 0-.462.033-.684.096a1.562 1.562 0 00-.631.379c-.205.212-.357.469-.446.75a4.466 4.466 0 00-.17 1.34v3.801a.154.154 0 01-.154.154h-1.34a.154.154 0 01-.11-.044.153.153 0 01-.044-.11v-7.61a.145.145 0 01.088-.142.145.145 0 01.058-.012h1.309a.145.145 0 01.105.046.15.15 0 01.04.108v.623c.233-.277.528-.496.861-.637.412-.187.867-.26 1.316-.211.29.021.576.07.855.146a.139.139 0 01.077.183zm6.379 7.441a6.118 6.118 0 01-2.134.38c-1.304 0-2.307-.376-2.974-1.118-.667-.742-1.003-1.749-1.003-3a5.186 5.186 0 01.247-1.622c.152-.482.401-.927.732-1.309a3.46 3.46 0 011.214-.878 4.104 4.104 0 011.68-.324c.378-.003.756.022 1.13.075.342.055.678.14 1.005.255a.135.135 0 01.102.122.134.134 0 01-.007.055l-.373 1.03c-.055.155-.174.103-.174.103a5.04 5.04 0 00-1.593-.227c-.744 0-1.304.249-1.671.736-.367.488-.576 1.131-.579 1.974 0 .938.231 1.63.648 2.06.416.43.987.646 1.723.646.276.002.552-.018.825-.06.24-.04.476-.107.702-.197a.14.14 0 01.12 0 .142.142 0 01.078.091l.37 1.02a.136.136 0 01-.068.188zm7.553-3.438a.15.15 0 01-.15.132h-5.1c.032.776.217 1.325.592 1.697.375.373.953.593 1.745.593a4.91 4.91 0 002.094-.377.146.146 0 01.197.088l.336.934c.065.158.013.211-.044.245-.32.175-1.095.505-2.566.509a5.1 5.1 0 01-1.85-.3 3.269 3.269 0 01-2.032-2.14 5.445 5.445 0 01-.23-1.628 5.74 5.74 0 01.222-1.626c.14-.484.374-.934.691-1.324a3.37 3.37 0 011.175-.896 3.984 3.984 0 011.685-.328c.502-.002.999.099 1.46.296.371.176.701.428.97.738.3.346.523.754.65 1.194.2.713.251 1.46.155 2.193z" />
  </g>
</svg>