<svg width="74" height="82" fill="none" xmlns="http://www.w3.org/2000/svg">
  <path
    d="M70.704 38.723c-1.806-3.106-4.346-5.597-7.521-7.472-2.373-1.38-4.834-2.258-7.606-2.634v-9.871c2.772-1.177 4.493-3.783 4.493-6.823 0-4.144-3.323-7.502-7.463-7.502-4.144 0-7.525 3.358-7.525 7.502 0 3.04 1.622 5.646 4.395 6.823v9.875a21.717 21.717 0 00-6.62 2.075c-4.29-3.259-18.359-13.949-26.589-20.192.195-.704.346-1.43.346-2.195C16.614 3.72 12.897 0 8.306 0A8.305 8.305 0 000 8.31a8.31 8.31 0 008.31 8.31c1.566 0 3.014-.459 4.264-1.212l1.737 1.318L38.177 33.92c-1.262 1.159-2.437 2.476-3.377 3.955-1.905 3.013-3.069 6.33-3.069 9.947v.755c0 2.539.483 4.936 1.304 7.188.724 1.967 1.782 3.755 3.093 5.371l-7.921 7.94a6.378 6.378 0 00-6.747 1.48 6.376 6.376 0 00-1.878 4.541c0 1.716.668 3.328 1.882 4.54a6.378 6.378 0 004.54 1.882 6.382 6.382 0 004.543-1.882 6.386 6.386 0 001.88-4.54c0-.663-.103-1.311-.296-1.927l8.187-8.188a21.038 21.038 0 003.638 1.991c2.57 1.111 5.407 1.789 8.512 1.789h.569c3.432 0 6.67-.807 9.714-2.456 3.208-1.743 5.718-4.126 7.615-7.17 1.906-3.05 2.956-6.421 2.956-10.13v-.185c0-3.649-.844-7.015-2.618-10.099zM60.7 55.9c-2.223 2.47-4.777 3.99-7.664 3.99h-.476c-1.65 0-3.262-.455-4.842-1.284-1.78-.913-3.133-2.215-4.24-3.864-1.145-1.618-1.766-3.385-1.766-5.258v-.569c0-1.841.353-3.588 1.244-5.237.952-1.803 2.238-3.205 3.948-4.32 1.68-1.106 3.473-1.649 5.47-1.649h.186c1.811 0 3.526.357 5.144 1.185a10.896 10.896 0 014.04 3.676 11.692 11.692 0 011.812 5.163c.03.388.045.785.045 1.165 0 2.53-.967 4.875-2.901 7.002z"
    fill="#F8761F" />
</svg>