<svg xmlns="http://www.w3.org/2000/svg" width="91" height="86" viewBox="0 0 91 86" fill="none">
  <path d="M40.4696 0.469727C54.2696 0.469727 75.0446 4.74473 84.7946 14.4197C87.2696 16.8947 90.4946 21.6947 90.4946 28.8197C90.4946 41.4197 80.3696 60.6947 69.2696 71.9447C63.4946 77.7197 54.3446 85.2947 41.9696 85.2947C29.8946 85.2947 20.6696 77.0447 18.0446 74.4197C7.84463 64.1447 0.494629 48.6197 0.494629 34.0697C0.494629 24.9197 3.11963 16.8947 9.71963 10.2197C15.8696 3.99473 26.4446 0.469727 40.4696 0.469727ZM57.5696 50.6447C62.2196 45.9947 63.4946 40.2197 63.4946 37.0697C63.4946 34.7447 62.8946 31.3697 60.0446 28.5197C55.6196 24.0947 50.8196 22.8947 45.4946 22.8947C38.8196 22.8947 34.3196 24.9947 31.3196 27.9947C28.9946 30.3197 26.9696 33.9947 26.9696 39.1697C26.9696 44.3447 29.6696 49.2947 32.6696 52.2947C35.4446 55.0697 39.7196 57.0947 44.1446 57.0947C48.5696 57.0947 52.9196 55.2947 57.5696 50.6447Z" fill="#5952FF"/>
</svg>