<svg width="90" height="91" viewBox="0 0 90 91" fill="none" xmlns="http://www.w3.org/2000/svg">
<path d="M89.088 36.3906C84.4587 12.9742 61.2493 -2.97414 37.6619 1.07481C16.8638 4.63563 1.50936 21.522 0 42.4977V43.6225C0 44.9046 0 46.1868 0 47.4689V48.5936C1.57459 71.1755 19.4979 89.1056 41.9605 90.5564H43.0853H46.9295H48.0542C50.403 90.4124 52.7356 90.0715 55.0274 89.5375C79.2086 83.68 93.9062 60.7607 89.088 36.3906ZM51.6533 47.0708C51.6533 51.7016 51.6533 56.3339 51.6533 60.9677C51.6533 62.6165 51.4621 62.8032 49.7683 62.8054H43.2675C41.0765 62.8054 40.9618 62.6885 40.9596 60.4413C40.9596 54.6873 40.9348 48.9333 40.9843 43.1816C40.9843 42.2323 40.7459 41.9849 39.8191 42.0344C38.2917 42.1176 36.7577 42.0659 35.2258 42.0546C33.8199 42.0434 33.4938 41.7239 33.4893 40.3518C33.4803 37.8864 33.4803 35.4211 33.4893 32.9557C33.4893 31.6916 33.8357 31.3339 35.0638 31.3317C40.1453 31.3317 45.2244 31.3429 50.3059 31.3182C51.3248 31.3182 51.6735 31.7163 51.6555 32.724C51.633 37.5018 51.6533 42.284 51.6533 47.0708Z" fill="black"/>
</svg>
