<svg xmlns="http://www.w3.org/2000/svg" width="91" height="91" viewBox="0 0 91 91" fill="none">
  <path d="M45.5186 0.564453C20.6458 0.564453 0.536743 20.7099 0.536743 45.5826C0.536743 70.4554 20.6822 90.6008 45.5186 90.6008C70.3549 90.6008 90.5367 70.4554 90.5367 45.5826C90.5367 20.7099 70.3913 0.564453 45.5186 0.564453ZM76.8277 60.4554C76.8277 69.5463 69.4822 76.8917 60.3913 76.8917H30.6458C21.5549 76.8917 14.2095 69.5463 14.2095 60.4554V30.7099C14.2095 21.619 21.5913 14.2736 30.6458 14.2736H60.3913C69.4822 14.2736 76.8277 21.619 76.8277 30.7099V60.4554Z" fill="#0070E0"/>
  <path d="M51.2616 58.8187C51.4435 58.6006 51.6253 58.346 51.7707 58.0915L89.5889 5.146L45.3707 46.0187L26.7162 31.946L40.2435 57.9824C40.3162 58.1278 40.4616 58.2369 40.5344 58.3824C40.5707 58.4551 40.6435 58.5278 40.6798 58.6006C40.8253 58.7824 40.9344 58.9642 41.0798 59.146C41.2253 59.2915 41.3707 59.4006 41.5162 59.5096C43.2253 61.0369 45.5525 61.5824 47.6616 61.0369C47.698 61.0369 47.698 61.0369 47.7344 61.0369C48.1344 60.9278 48.498 60.8187 48.8616 60.6369C48.9344 60.6006 48.9707 60.5642 49.0435 60.5642C49.3707 60.4187 49.6616 60.2369 49.9889 60.0187C50.098 59.946 50.1707 59.8733 50.2798 59.8005C50.4253 59.6915 50.5707 59.5824 50.7162 59.4733C50.8253 59.3642 50.898 59.2551 51.0071 59.146C51.0435 59.1096 51.1162 59.0733 51.1525 59.0006L51.2616 58.8187Z" fill="#0070E0"/>
  <path d="M89.5914 5.18213L42.0641 47.6185C41.6641 47.9094 41.3369 48.2003 40.9732 48.5639C38.4641 51.364 38.6823 55.6549 41.4823 58.164C44.2823 60.673 48.5732 60.4549 51.0823 57.6549L89.5914 5.18213Z" fill="#0070E0"/>
  <path d="M26.6815 31.983L40.2088 56.6376C40.4633 57.0376 40.7179 57.4376 41.0815 57.8012C43.627 60.5649 47.9543 60.7103 50.6815 58.1285C53.4088 55.583 53.5906 51.2558 51.0088 48.5285L26.6815 31.983Z" fill="#0070E0"/>
</svg>