<svg width="85" height="84" fill="none" xmlns="http://www.w3.org/2000/svg">
  <path
    d="M83.397 34.673H58.754L76.07 17.357c-1.332-1.997-2.664-3.33-3.997-5.329a38.096 38.096 0 01-5.327-4.662L49.432 24.684V.708a22.643 22.643 0 00-6.66-.666 20.513 20.513 0 00-6.662.666V25.35L18.13 7.369a17.981 17.981 0 00-5.33 4.66c-1.332 1.998-3.33 3.33-4.661 5.33l17.315 17.314H1.477l-.666 6.66c-.144 2.242.08 4.492.666 6.66h24.644L8.14 65.975a35.698 35.698 0 009.99 9.99l17.316-17.317v24.644c2.175.55 4.42.775 6.66.666 2.241.144 4.491-.08 6.66-.666V58.651L66.08 75.968a17.982 17.982 0 005.328-4.662 38.099 38.099 0 004.662-5.327l-17.316-17.32h24.643c.55-2.174.775-4.418.666-6.659a24.976 24.976 0 00-.665-7.327h-.001zm-30.637 6.66a33.767 33.767 0 01-1.333 8.66 19.982 19.982 0 01-8.658 1.331 33.77 33.77 0 01-8.66-1.332 19.979 19.979 0 01-1.331-8.659 33.766 33.766 0 011.332-8.658 19.98 19.98 0 018.659-1.333c2.931.067 5.842.514 8.658 1.333a38.958 38.958 0 011.333 8.658z"
    fill="#FF4A00" />
</svg>