<svg width="89" height="89" fill="none" xmlns="http://www.w3.org/2000/svg">
  <path
    d="M88.11 45.489c0-3.659-.297-6.329-.94-9.098H45.39v16.514h24.524c-.494 4.104-3.164 10.285-9.098 14.438l-.083.553 13.21 10.234.916.091c8.405-7.763 13.25-19.185 13.25-32.732z"
    fill="#4285F4" />
  <path
    d="M45.39 89c12.015 0 22.102-3.956 29.47-10.779L60.816 67.343c-3.758 2.62-8.801 4.45-15.427 4.45-11.767 0-21.755-7.762-25.315-18.492l-.522.045-13.736 10.63-.18.5C12.955 79.011 27.986 89 45.39 89z"
    fill="#34A853" />
  <path
    d="M20.074 53.3c-.94-2.768-1.483-5.735-1.483-8.8 0-3.066.544-6.032 1.434-8.801l-.025-.59L6.092 24.308l-.455.216C2.62 30.556.89 37.33.89 44.5s1.73 13.943 4.747 19.975l14.437-11.174z"
    fill="#FBBC05" />
  <path
    d="M45.39 17.206c8.356 0 13.993 3.61 17.207 6.626L75.156 11.57C67.443 4.4 57.406 0 45.39 0 27.986 0 12.955 9.988 5.637 24.524L20.025 35.7c3.61-10.73 13.598-18.492 25.365-18.492z"
    fill="#EB4335" />
</svg>