<svg width="1920" height="363" viewBox="0 0 1920 363" fill="none" xmlns="http://www.w3.org/2000/svg">
<g clip-path="url(#clip0_4983_8486)">
<rect width="1920" height="363" fill="#1B1B1B"/>
<g clip-path="url(#clip1_4983_8486)">
<rect x="-14" y="-291" width="1941" height="1227.57" rx="43.3259" fill="url(#paint0_linear_4983_8486)"/>
<path d="M872.805 -26.8022L1996.32 -32.8942C2070.41 -32.8942 2063.75 21.9338 2051.15 47.5206L1543.01 1113.63C1508.89 1171.14 1441.06 1185.51 1411.41 1185.51C1052.34 1187.95 318.359 1192.82 254.994 1192.82C191.629 1192.82 183.099 1151.4 192.848 1125.81C351.261 791.967 669.139 106.86 711.955 42.646C758.26 -26.8022 831.374 -26.8022 872.805 -26.8022Z" fill="url(#paint1_linear_4983_8486)" style="mix-blend-mode:soft-light"/>
<path d="M702.206 -420.682L1825.72 -426.774C1899.81 -426.774 1893.15 -371.946 1880.56 -346.359L1372.42 719.747C1338.3 777.256 1270.46 791.633 1240.81 791.633C881.741 794.07 147.761 798.943 84.3954 798.943C21.0302 798.943 12.5003 757.517 22.2488 731.931C180.662 398.087 498.541 -287.02 541.356 -351.234C587.661 -420.682 660.775 -420.682 702.206 -420.682Z" fill="url(#paint2_linear_4983_8486)" style="mix-blend-mode:soft-light"/>
<path d="M536.482 -814.562L1660 -820.654C1734.08 -820.654 1727.42 -765.826 1714.83 -740.239L1206.69 325.867C1172.57 383.376 1104.74 397.753 1075.09 397.753C716.017 400.19 -17.9635 405.064 -81.3287 405.064C-144.694 405.064 -153.224 363.638 -143.475 338.051C14.9377 4.20732 332.817 -680.9 375.632 -745.114C421.937 -814.562 495.051 -814.562 536.482 -814.562Z" fill="url(#paint3_linear_4983_8486)" style="mix-blend-mode:soft-light"/>
</g>
</g>
<defs>
<linearGradient id="paint0_linear_4983_8486" x1="2015.5" y1="446.784" x2="-315.284" y2="-229.729" gradientUnits="userSpaceOnUse">
<stop stop-color="#7C52FF"/>
<stop offset="0.302863" stop-color="#7C52FF"/>
<stop offset="0.653804" stop-color="#F9008E"/>
<stop offset="1" stop-color="#F6AB3C"/>
</linearGradient>
<linearGradient id="paint1_linear_4983_8486" x1="1231.42" y1="-645.569" x2="498.147" y2="948.079" gradientUnits="userSpaceOnUse">
<stop stop-color="#FFC8AB" stop-opacity="0.16"/>
<stop offset="0.382099" stop-color="#FFB5EC" stop-opacity="0.31"/>
<stop offset="0.81751" stop-color="#C3B0FF" stop-opacity="0.16"/>
</linearGradient>
<linearGradient id="paint2_linear_4983_8486" x1="1231.42" y1="-645.569" x2="498.147" y2="948.079" gradientUnits="userSpaceOnUse">
<stop stop-color="#FFC8AB" stop-opacity="0.16"/>
<stop offset="0.382099" stop-color="#FFB5EC" stop-opacity="0.31"/>
<stop offset="0.81751" stop-color="#C3B0FF" stop-opacity="0.16"/>
</linearGradient>
<linearGradient id="paint3_linear_4983_8486" x1="1231.42" y1="-645.569" x2="498.147" y2="948.079" gradientUnits="userSpaceOnUse">
<stop stop-color="#FFC8AB" stop-opacity="0.16"/>
<stop offset="0.382099" stop-color="#FFB5EC" stop-opacity="0.31"/>
<stop offset="0.81751" stop-color="#C3B0FF" stop-opacity="0.16"/>
</linearGradient>
<clipPath id="clip0_4983_8486">
<rect width="1920" height="363" fill="white"/>
</clipPath>
<clipPath id="clip1_4983_8486">
<rect x="-14" y="-291" width="1941" height="1227.57" rx="43.3259" fill="white"/>
</clipPath>
</defs>
</svg>
