<svg width="180" height="32" viewBox="0 0 180 32" fill="none" xmlns="http://www.w3.org/2000/svg">
  <path id="Vector"
    d="M14.8776 13.057C9.40985 11.4734 7.79641 10.5472 7.79641 8.33614C7.79641 6.75257 9.11107 5.37815 12.577 5.37815C15.2661 5.25864 17.8954 6.21476 19.8972 8.03736C20.1064 8.24651 20.4649 8.06723 20.6143 7.94771L23.6918 4.78058C23.8711 4.60131 23.7815 4.39216 23.6022 4.12325C21.2418 1.01588 16.8197 0 12.6367 0C6.30248 0 1.43226 2.86835 1.43226 8.45565C1.43226 14.1326 5.22685 16.5826 12.338 18.704C16.4313 19.8992 18.6722 20.8254 18.6722 23.0663C18.6722 25.3072 16.1325 26.5023 12.9355 26.5023C9.55925 26.5023 6.48175 25.7853 3.94207 23.1261C3.82255 22.9468 3.46401 23.0364 3.28474 23.2754L0.0279689 26.8609C-0.0317884 27.07 -0.00190975 27.2792 0.177362 27.4286C3.16522 30.7451 7.82629 32 12.5471 32C19.1503 32 24.8272 29.1317 24.8272 22.887C24.8272 16.8814 21.0924 14.8796 14.8776 13.0868V13.057ZM56.5583 0.50794H51.0606C50.7917 0.50794 50.5826 0.687212 50.5228 0.956119V19.4211C50.5228 23.4248 49.0887 25.9645 44.2483 25.9645C39.6769 25.9645 38.0037 23.6937 38.0037 19.5705V1.04575C38.0037 0.836601 37.8244 0.47806 37.5256 0.47806H32.1176C31.8188 0.507938 31.6097 0.746965 31.5798 1.04575V20.437C31.5798 27.817 36.3305 31.761 44.1587 31.761C51.9869 31.761 57.0065 27.7572 57.0065 20.3175V0.926239C56.9766 0.68721 56.7973 0.50794 56.5583 0.50794ZM77.2642 0.119522C69.4659 0.119522 64.4164 4.12325 64.4164 11.563V30.9542C64.4463 31.1933 64.6255 31.3725 64.8646 31.4024H70.3622C70.6311 31.4024 70.8403 31.2232 70.9001 30.9542V12.4594C70.9001 8.45565 72.3342 5.88609 77.2044 5.88609C81.7759 5.88609 83.4491 8.18674 83.4491 12.2801V30.8049C83.4491 31.014 83.6283 31.3725 83.9271 31.3725H89.3352C89.6339 31.3427 89.8431 31.1036 89.873 30.8049V11.4136C89.8431 4.03362 85.0924 0.119522 77.2642 0.119522ZM145.955 0.50794H140.457C140.189 0.50794 139.979 0.687212 139.92 0.956119V19.4211C139.92 23.4248 138.485 25.9645 133.615 25.9645C129.044 25.9645 127.371 23.6937 127.371 19.5705V1.04575C127.371 0.836601 127.191 0.47806 126.893 0.47806H121.485C121.186 0.507938 120.977 0.746965 120.947 1.04575V20.437C120.947 27.817 125.697 31.761 133.526 31.761C141.354 31.761 146.373 27.7572 146.373 20.3175V0.926239C146.403 0.68721 146.194 0.50794 145.955 0.50794ZM166.661 0.119522C158.893 0.119522 153.813 4.12325 153.813 11.563V30.9542C153.813 31.1933 154.022 31.3725 154.232 31.4024H159.729C159.998 31.4024 160.207 31.2232 160.267 30.9542V12.4594C160.267 8.45565 161.701 5.88609 166.542 5.88609C171.143 5.88609 172.786 8.18674 172.786 12.2801V30.8049C172.786 31.014 172.965 31.3725 173.264 31.3725H178.672C178.971 31.3427 179.18 31.1036 179.21 30.8049V11.4136C179.27 4.03362 174.519 0.119522 166.661 0.119522ZM114.403 0.179274H114.194C112.67 0.179274 112.043 0.119522 111.505 0.119522C103.707 0.119522 98.6573 4.12325 98.6573 11.563V30.9542C98.6573 31.1933 98.8664 31.3725 99.0756 31.4024H104.603C104.842 31.4024 105.081 31.2232 105.111 30.9542V12.4594C105.111 8.45565 106.545 5.91597 111.386 5.91597H114.373C114.881 5.88609 115.3 5.46779 115.3 4.95985V1.16527C115.359 0.627458 114.911 0.179274 114.403 0.179274Z"
    fill="#87807b" />
</svg>