<svg width="216" height="32" viewBox="0 0 216 32" fill="none" xmlns="http://www.w3.org/2000/svg">
  <g id="Layer_1" clip-path="url(#clip0_4429_72877)">
    <path id="Vector" fill-rule="evenodd" clip-rule="evenodd"
      d="M70.83 31.5701V22.185C70.83 18.7701 71.6776 16.215 73.385 14.8269C74.982 13.2299 77.1194 13.0088 79.4657 13.9793V10.2449C75.4119 9.1762 72.4269 10.4537 70.6088 14.1881C70.6088 12.6894 70.6088 11.3136 70.4983 10.1344H66.7639C66.8745 12.3701 66.8745 19.5194 66.8745 31.5701H70.8177H70.83ZM97.1793 31.5701C97.0687 30.5013 96.9705 26.1282 96.9705 18.3401C96.9705 15.134 96.2211 12.7877 94.6242 11.6207C93.1255 10.3432 91.0004 9.70441 88.5436 9.70441C86.0868 9.70441 83.8511 10.3432 81.7136 11.5225V15.048C83.5317 13.6599 85.6568 12.9106 87.9048 12.9106C90.1528 12.9106 91.848 13.6599 92.5973 15.1463C93.1255 15.9939 93.3467 17.0626 93.3467 18.5612C87.7943 18.1313 83.9616 18.7701 81.7259 20.4775C80.0184 21.7551 79.1708 23.352 79.1708 25.2806C79.1708 27.3075 79.8096 28.9044 81.0872 30.0837C82.3647 31.263 84.1827 31.9017 86.4184 31.9017C89.514 31.9017 91.8603 30.6242 93.666 27.9585V31.5823H97.1916L97.1793 31.5701ZM93.4449 21.3251C93.3344 21.6445 93.3344 22.0745 93.3344 22.6027C93.3344 24.6296 92.8062 26.2265 91.6269 27.1846C90.4599 28.2534 88.9613 28.7816 87.3643 28.7816C86.0868 28.7816 85.0181 28.4622 84.2687 27.8234C83.5194 27.1846 83.2 26.3248 83.2 25.3666C83.2 24.4084 83.63 23.5486 84.367 22.9098C85.8657 21.5217 88.8507 20.9935 93.4326 21.3129L93.4449 21.3251ZM192.541 31.5701C192.43 30.5013 192.43 26.1282 192.43 18.3401C192.43 15.134 191.681 12.7877 190.084 11.6207C188.487 10.3432 186.46 9.70441 184.003 9.70441C181.546 9.70441 179.2 10.3432 177.075 11.5225V15.048C178.991 13.6599 181.018 12.9106 183.364 12.9106C185.711 12.9106 187.209 13.6599 188.057 15.1463C188.487 15.9939 188.696 17.0626 188.696 18.5612C183.156 18.1313 179.311 18.7701 177.075 20.4775C175.367 21.7551 174.52 23.352 174.52 25.2806C174.52 27.3075 175.159 28.9044 176.436 30.0837C177.824 31.263 179.532 31.9017 181.767 31.9017C184.863 31.9017 187.32 30.6242 189.015 27.9585V31.5823H192.541V31.5701ZM188.806 21.3251C188.696 21.6445 188.696 22.0745 188.696 22.6027C188.696 24.6296 188.167 26.2265 186.988 27.1846C185.821 28.2534 184.433 28.7816 182.726 28.7816C181.448 28.7816 180.49 28.4622 179.741 27.8234C178.991 27.1846 178.574 26.3248 178.574 25.3666C178.574 24.4084 179.003 23.5486 179.741 22.9098C181.239 21.5217 184.322 20.9935 188.806 21.3129V21.3251ZM0 10.1344V14.8269H12.6894C13.967 14.8269 14.9251 15.2568 15.5639 15.8956C16.3132 16.6449 16.6326 17.6031 16.6326 18.7701V25.2806C16.6326 28.3762 16.6326 30.5013 16.5221 31.5701C18.2296 31.4595 19.8265 31.4595 21.4234 31.5701V19.6177C21.4234 18.9789 21.2146 18.4507 20.6741 17.9102L13.5248 10.8714C13.0948 10.3432 12.5666 10.1221 11.9278 10.1221H0V10.1344ZM45.2299 10.1344H33.3881C32.7493 10.1344 32.1106 10.3432 31.6806 10.8837L24.5313 17.9225C24.0031 18.4507 23.782 18.9912 23.782 19.6299V31.5823C25.3789 31.4718 26.9881 31.4718 28.6833 31.5823C28.5728 30.5136 28.5728 28.3762 28.5728 25.2929V18.7823C28.5728 17.6031 29.0027 16.6449 29.6415 15.9079C30.3908 15.2691 31.3489 14.8392 32.5159 14.8392H45.2054V10.1466L45.2299 10.1344ZM100.275 31.5701H104.12V21.4357C104.12 18.4507 104.759 16.215 106.036 14.9251C107.215 13.6476 108.591 13.0088 110.2 13.0088C111.81 13.0088 112.977 13.537 113.824 14.6058C114.574 15.6745 114.991 17.382 114.991 19.8265V31.5578H118.934V19.937C118.934 16.0921 118.185 13.4265 116.699 11.9401C115.2 10.4415 113.394 9.70441 111.257 9.70441C109.758 9.70441 108.382 10.0238 107.093 10.6626C105.815 11.3013 104.746 12.1612 103.899 13.3282V10.1344H100.164C100.164 11.3013 100.164 12.4806 100.275 13.6599V31.5823V31.5701ZM149.767 28.4745C148.17 28.4745 146.561 28.0445 144.755 26.9758L144.547 30.5013C146.254 31.3489 148.17 31.7789 150.308 31.7789C152.544 31.7789 154.251 31.2507 155.75 30.0714C157.248 28.9044 157.985 27.2952 157.985 25.2683C157.985 22.9221 156.708 21.104 154.251 19.8265L150.947 18.119C149.559 17.3697 148.809 16.5221 148.809 15.3428C148.809 14.8146 149.129 14.1635 149.767 13.6353C150.296 12.9965 151.266 12.7877 152.544 12.7877C153.932 12.7877 155.32 13.2177 156.806 13.967L157.236 10.6626C155.32 9.91324 153.711 9.59386 152.335 9.59386C149.78 9.59386 147.962 10.2326 146.574 11.3013C145.296 12.4806 144.657 13.967 144.657 15.9939C144.657 17.0626 144.977 17.9102 145.615 18.7701C146.144 19.7282 147.114 20.4775 148.392 21.1163L152.015 23.1432C153.195 23.782 153.723 24.5313 153.723 25.4894C153.723 26.4476 153.403 27.1969 152.654 27.7251C151.905 28.2534 150.947 28.4745 149.78 28.4745H149.767ZM158.403 13.0088H163.304V24.8507C163.304 27.3075 163.833 29.015 165.012 30.182C166.081 31.2507 167.678 31.7789 169.704 31.7789C170.663 31.7789 171.842 31.5701 173.119 31.2507V27.9463C172.272 28.3762 171.522 28.585 170.773 28.585C169.704 28.585 168.857 28.2656 168.218 27.5163C167.579 26.8775 167.149 25.6983 167.149 23.9908V13.0088H172.911V10.1344H167.149V3.84491L163.304 5.23301V10.1344H158.403V13.0088ZM142.409 31.5701C142.2 30.3908 142.09 19.8388 142.09 0H138.245V13.4388C137.606 12.3701 136.648 11.5225 135.37 10.8837C134.093 10.2449 132.815 9.81497 131.317 9.81497C128.442 9.81497 125.985 10.8837 124.167 12.8C122.349 14.8269 121.502 17.4925 121.502 20.9075C121.502 24.3225 122.251 27.0987 124.057 29.1255C125.654 31.0418 128.111 32 131.206 32C132.594 32 133.982 31.6806 135.37 31.0418C136.648 30.2925 137.717 29.4449 138.466 28.1674C138.466 29.015 138.577 30.0837 138.675 31.5823H142.409V31.5701ZM131.955 13.2177C133.774 13.2177 135.37 13.967 136.537 15.3551C137.704 16.952 138.245 18.7701 138.245 20.8952C138.245 23.1309 137.717 24.9489 136.537 26.4476C135.26 27.9463 133.761 28.6833 131.845 28.6833C129.929 28.6833 128.43 28.0445 127.263 26.6564C126.194 25.2683 125.555 23.352 125.555 21.104C125.555 18.856 126.194 16.9397 127.263 15.4534C128.43 13.9547 129.929 13.2177 131.955 13.2177ZM215.905 31.5701C215.696 30.3908 215.585 19.8388 215.585 0H211.741V13.4388C211.102 12.3701 210.144 11.5225 208.866 10.8837C207.687 10.2449 206.311 9.81497 204.812 9.81497C201.938 9.81497 199.481 10.8837 197.663 12.8C195.845 14.8269 194.997 17.4925 194.997 20.9075C194.997 24.3225 195.747 27.0987 197.454 29.1255C199.162 31.0418 201.618 32 204.702 32C206.09 32 207.478 31.6806 208.866 31.0418C210.144 30.2925 211.212 29.4449 211.962 28.1674C211.962 29.015 212.072 30.0837 212.17 31.5823H215.905V31.5701ZM205.341 13.2177C207.257 13.2177 208.866 13.967 210.033 15.3551C211.212 16.952 211.851 18.7701 211.851 20.8952C211.851 23.1309 211.212 24.9489 210.033 26.4476C208.866 27.9463 207.257 28.6833 205.341 28.6833C203.523 28.6833 201.926 28.0445 200.759 26.6564C199.69 25.2683 199.051 23.352 199.051 21.104C199.051 18.856 199.69 16.9397 200.759 15.4534C201.938 13.9547 203.535 13.2177 205.341 13.2177Z"
      fill="#87807b" />
  </g>
  <defs>
    <clipPath id="clip0_4429_72877">
      <rect width="215.893" height="32" fill="white" />
    </clipPath>
  </defs>
</svg>