<svg width="54" height="32" viewBox="0 0 54 32" fill="none" xmlns="http://www.w3.org/2000/svg">
<path d="M32.0632 20.2286C28.3309 22.5384 23.5642 23.6041 18.9045 23.5952C29.1157 23.6487 37.4185 18.5966 37.4675 12.2915C37.4675 12.2559 37.4675 12.2202 37.4675 12.1801C37.4541 15.346 35.2737 18.2399 32.0676 20.2242L32.0632 20.2286Z" fill="#87807B"/>
<path d="M14.4053 1.07259C15.8768 0.845174 17.3929 0.729239 18.9223 0.72478C8.72896 0.68019 0.43961 5.73228 0.39502 12.0284C0.39502 12.0418 0.39502 12.0507 0.39502 12.0641C0.408397 10.3429 1.06833 8.55039 2.57103 6.78461C5.34901 3.52506 10.2629 1.71023 14.4053 1.06813V1.07259Z" fill="#87807B"/>
<path d="M51.8479 0.238772C49.5337 -0.439002 45.8238 0.475101 43.5185 1.13058C40.0359 2.12049 36.6917 3.52954 33.3831 4.97873C33.3831 4.97873 33.3741 4.97427 33.3741 4.96981C33.3608 4.97427 33.3474 4.97873 33.3385 4.98319C33.3251 4.98319 33.3117 4.98765 33.2983 4.99211C33.8513 5.41125 34.3551 5.8527 34.8055 6.31644C34.8278 6.2986 34.8501 6.28077 34.8768 6.27185C37.7172 5.12142 40.6379 3.97098 43.6522 3.35564C46.8538 2.70016 52.2894 2.40586 49.391 7.35539C47.3755 10.8022 42.7515 14.4631 39.5232 16.8175C38.618 17.4774 37.5032 18.1195 36.6605 18.8107C36.5847 18.8731 36.5311 18.8865 36.6337 18.9623C36.7095 18.9756 36.7452 18.9311 36.7942 18.8998C37.3784 18.5877 38.123 18.0214 38.6893 17.6335C42.4706 15.0651 46.5372 11.9883 49.6853 8.67527C51.246 7.02988 56.1375 1.49622 51.8435 0.238772H51.8479Z" fill="#87807B"/>
<path d="M16.1266 29.4142C13.9863 30.1098 11.7434 30.8188 9.49603 31.0685C6.42821 31.4119 3.42728 30.8366 5.4606 27.0821C6.47726 25.2093 8.13156 23.5818 9.63426 22.0969C9.64763 22.0702 9.66993 22.0523 9.69668 22.0345C9.08579 21.816 8.49274 21.5708 7.92644 21.3121C7.91307 21.3433 7.89523 21.3701 7.87294 21.3924C6.35241 22.8282 4.82741 24.322 3.60564 26.0298C2.38386 27.7376 0.671593 30.8857 3.73049 31.7641C6.49955 32.5578 11.3153 31.1666 14.0442 30.2748C14.285 30.1945 16.2871 29.5703 16.2916 29.4499C16.2916 29.4008 16.1667 29.3652 16.1222 29.4142H16.1266Z" fill="#87807B"/>
<path d="M19.0115 0.724854C18.9803 0.724854 18.9535 0.724854 18.9223 0.724854C17.3929 0.724854 15.8768 0.845248 14.4053 1.07266C10.2629 1.7103 5.34902 3.52959 2.57105 6.78914C1.06835 8.55046 0.408413 10.3475 0.395036 12.0686C0.381659 18.3648 8.62642 23.5239 18.8376 23.5997C18.8421 23.5997 18.851 23.5997 18.8554 23.5997C18.8688 23.5997 18.8867 23.5997 18.9 23.5997C23.5597 23.6042 28.3309 22.5429 32.0587 20.2331C35.2647 18.2444 37.4452 15.3505 37.4585 12.189C37.4095 5.92409 29.1826 0.800657 19.0071 0.729313L19.0115 0.724854ZM28.8571 15.181H25.0268L26.9218 8.23387L28.8615 15.181H28.8571ZM15.743 1.91542C16.5145 1.80394 17.2992 1.76381 18.0751 1.68801L14.3786 15.181L10.9005 3.27542C12.43 2.60211 14.0843 2.16066 15.743 1.91988V1.91542ZM19.9033 15.181H16.0284L17.9235 8.23387L19.9078 15.181H19.9033ZM10.8113 15.181H7.02562L8.89842 8.27846L10.8158 15.181H10.8113ZM4.5241 15.6983C3.74377 14.1688 3.44502 12.5591 3.74377 10.8513C4.19859 8.23833 6.11598 6.0757 8.27415 4.6711L5.02352 16.5143L4.5241 15.6983ZM10.9942 21.1249C9.25068 20.4026 7.54733 19.3636 6.23637 18.0036L6.65552 16.5589H11.2572C11.2572 16.5633 12.644 21.6823 12.644 21.6823C12.5727 21.7448 11.1948 21.2052 10.9986 21.1249H10.9942ZM14.111 22.1282L15.6226 16.5812L20.3002 16.5678L21.9099 22.3958C19.337 22.8194 16.6616 22.6499 14.111 22.1282ZM19.502 1.68801C20.6703 1.75043 21.8296 1.85299 22.9801 2.06702C24.2553 2.30335 25.4994 2.67791 26.7167 3.11936L23.3814 15.181L19.5065 1.68801H19.502ZM29.9941 19.3636C29.9629 19.4261 29.2405 19.8853 29.1201 19.9611C27.943 20.6969 26.6409 21.2721 25.2943 21.6333L24.2241 18.1329L24.5987 16.6035L29.2584 16.5812C29.3565 16.9201 30.0699 19.212 29.9941 19.3636ZM32.7766 16.5589L29.2138 4.44815C29.2628 4.40802 29.8068 4.79595 29.896 4.85838C31.9293 6.27635 33.7397 8.42561 34.1455 10.9405C34.4621 12.8936 33.976 14.9893 32.7766 16.5589Z" fill="#87807B"/>
</svg>
