<svg width="114" height="32" viewBox="0 0 114 32" fill="none" xmlns="http://www.w3.org/2000/svg">
<path d="M19.1148 8.06652C19.0705 7.99117 18.9464 8.0222 18.8711 8.0222C16.0124 7.99117 13.1536 8.04436 10.2993 8.0222C9.71429 8.09755 9.24448 8.49644 9.03617 9.04159L0.686035 32H9.67883L18.029 9.04159C18.2151 8.55849 18.6007 8.16846 19.1148 8.06652Z" fill="#87807B"/>
<path d="M10.2993 8.02217L11.6821 8.01331C11.2212 8.01331 10.7603 8.01331 10.2993 8.02217Z" fill="#87807B"/>
<path d="M29.2688 0.0886427L29.2156 0L20.9629 22.7014C20.8078 23.1889 20.5242 23.6011 20.0544 23.8316L19.6909 23.9778H28.6616C28.9496 23.9778 29.5081 23.5479 29.6765 23.3086C32.6062 15.5789 35.3541 7.7651 38.2084 0L38.1242 0.0886427H29.2688Z" fill="#87807B"/>
<path d="M50.6583 20.6537L43.8816 8.90857H40.5132V23.9778H42.9065V12.144L49.6833 23.9778H53.096V8.90857H50.6583V20.6537Z" fill="#87807B"/>
<path d="M110.581 12.4055C106.707 12.1352 103.268 13.1679 102.847 17.5291C102.399 22.1606 105.258 24.492 109.694 24.2881C109.996 24.2748 110.452 24.1551 110.723 24.164C110.763 24.164 110.825 24.195 110.825 24.2216V29.0748L113.395 27.9446V12.5872L110.585 12.41L110.581 12.4055ZM110.825 22.1607C109.22 22.3823 107.217 22.5197 106.153 21.0482C105.16 19.6742 105.129 16.7623 106.282 15.4681C107.407 14.205 109.291 14.369 110.825 14.4487V22.1607Z" fill="#87807B"/>
<path d="M86.0579 12.4986C84.0368 12.3346 81.9759 12.2149 80.2606 13.4559C77.4374 15.4991 77.2556 20.667 79.9016 22.9362C81.5681 24.3678 83.8108 24.4432 85.9072 24.288C86.8025 24.2216 87.7022 24.0753 88.5886 23.9335V7.97778H86.0623V12.4986H86.0579ZM86.0579 22.2936C84.7371 22.4088 83.3676 22.5462 82.2063 21.7794C80.6108 20.7246 80.3892 18.3977 80.8723 16.6869C81.5637 14.2271 83.926 14.2182 86.0579 14.5373V22.2936Z" fill="#87807B"/>
<path d="M100.724 15.5346C100.617 14.4886 100.223 13.5667 99.301 13.0127C97.7586 12.0775 94.1464 12.3036 92.378 12.5961C92.2273 12.6227 91.4029 12.7468 91.3719 12.831V14.8033C92.8256 14.5462 94.337 14.2537 95.8262 14.3158C96.5575 14.3468 97.7542 14.3956 98.0511 15.1933C98.0954 15.313 98.193 15.6942 98.193 15.805V16.8465C95.4539 16.7623 90.8179 16.3413 90.614 20.1928C90.3791 24.7003 94.7758 24.2925 97.9492 24.164C98.8888 24.1241 99.8284 24.0886 100.755 23.9335C100.746 21.1368 100.808 18.3357 100.715 15.5435L100.724 15.5346ZM98.3747 22.3158C98.3747 22.3424 98.2993 22.3823 98.2639 22.3823C96.7171 22.4088 93.1979 22.9983 93.0561 20.6759C92.9763 19.3507 93.7475 18.8498 94.9531 18.6681C96.0788 18.4997 97.2445 18.5972 98.3747 18.6548V22.3113V22.3158Z" fill="#87807B"/>
<path d="M57.5546 12.503C57.0095 12.5695 56.4732 12.6936 55.9325 12.7645V14.8033C57.3773 14.5418 58.8665 14.2582 60.3424 14.3158C61.0826 14.3424 62.3103 14.3823 62.6117 15.1933C62.656 15.313 62.7535 15.6942 62.7535 15.805V16.8465C60.0233 16.7667 55.4183 16.3324 55.1746 20.1485C54.8909 24.5717 59.0793 24.2748 62.2438 24.2083L65.2355 23.9645L65.2798 23.8316V15.5878C65.1291 11.8028 60.2183 12.1795 57.5546 12.5119V12.503ZM62.9308 22.3158C62.9308 22.3424 62.8555 22.3823 62.82 22.3823C61.2732 22.4088 57.7541 22.9983 57.6122 20.6759C57.5325 19.3329 58.3302 18.8321 59.5491 18.6637C60.6704 18.5086 61.8095 18.5972 62.9308 18.6593V22.3158Z" fill="#87807B"/>
<path d="M20.2007 22.7369L23.3032 14.205C22.7935 12.8355 22.3414 11.4438 21.8184 10.0831C21.4816 9.20115 21.1802 8.23495 19.9924 8.34575C19.4827 8.3945 18.9863 8.74021 18.7514 9.19229L15.6267 17.7596L17.4971 22.8743C18.1087 23.9469 19.6998 23.8626 20.2007 22.7413V22.7369Z" fill="#87807B"/>
<path d="M75.691 18.2825C74.5254 17.2853 72.7215 17.2055 71.3032 16.7756C70.829 16.6338 70.0578 16.3634 69.978 15.7961C69.7608 14.2316 72.3758 14.3069 73.3641 14.3601C74.2195 14.4044 75.0661 14.6172 75.9126 14.7147V12.6759C73.763 12.4277 70.86 11.9003 68.9143 13.1014C67.6866 13.8593 67.2301 15.2288 67.558 16.6205C67.8949 18.0476 69.2999 18.6504 70.5852 19.0005C71.476 19.2443 73.896 19.4393 74.0821 20.5518C74.3968 22.3956 71.1082 22.2759 70.0001 22.1518C69.1713 22.0587 68.3514 21.8371 67.5359 21.6687V23.7961C69.8938 24.1861 73.3242 24.7224 75.3719 23.1933C76.8877 22.0632 77.1669 19.5457 75.6866 18.2781L75.691 18.2825Z" fill="#87807B"/>
<path d="M19.1237 8.01324L19.1148 8.06643L19.4029 7.97778L11.6821 8.01767C14.1907 8.00881 16.6727 8.00438 19.1237 8.01767V8.01324Z" fill="#87807B"/>
</svg>
