<svg xmlns="http://www.w3.org/2000/svg" width="74" height="43" viewBox="0 0 74 43" fill="none">
  <g clip-path="url(#clip0_4421_72408)">
    <path d="M33.1896 18.2762C33.7405 17.7268 34.361 17.2517 35.0351 16.8632L33.0842 26.4595H31.5762C30.9962 25.6686 30.7009 24.6984 30.7009 23.6122C30.7009 21.7668 31.5762 19.8686 33.1896 18.2762Z" fill="white"/>
    <path d="M36.3953 41.0543C41.1197 40.2739 45.844 37.8379 49.4927 34.1997C50.7584 32.9507 51.9025 31.5842 52.9094 30.1187L51.7494 35.7921C51.5913 35.9397 51.4331 36.0874 51.296 36.235C48.306 39.1903 44.7072 41.4576 40.7506 42.8786H36.0051L36.3848 41.0648L36.3953 41.0543Z" fill="white"/>
    <path d="M67.0824 19.2256C67.1141 18.8565 67.1457 18.4874 67.1879 18.1183H70.0352L68.0315 28.0732H64.7625C65.9752 25.1732 66.7661 22.1994 67.0824 19.215V19.2256Z" fill="white"/>
    <path d="M65.775 18.1183C65.7434 18.4346 65.7118 18.751 65.6696 19.0674C65.3532 22.1045 64.5307 25.131 63.2441 28.0626H58.8994C60.1649 25.4263 61.0085 22.6845 61.3249 19.9426C61.4092 19.3416 61.462 18.7299 61.4936 18.1183H65.7645H65.775Z" fill="white"/>
    <path d="M69.9404 0.697144H74.0004L72.5873 7.57276C72.0133 5.17536 71.127 2.86372 69.951 0.697144L69.9404 0.697144Z" fill="white"/>
    <path d="M68.3269 0.697144C68.986 1.82716 69.5606 3.00444 70.0458 4.21932C70.8467 6.24146 71.4059 8.35109 71.712 10.5044H66.5869C65.7572 6.89336 64.0799 3.53166 61.6938 0.697144L68.3375 0.697144H68.3269Z" fill="white"/>
    <path d="M60.0805 18.1183C60.0489 18.6666 60.0067 19.2256 59.9434 19.7845C59.5954 22.5685 58.7096 25.3735 57.3282 28.0626H54.1646C55.4827 25.6899 56.3475 23.2117 56.7165 20.7125C56.8431 19.8372 56.9064 18.9725 56.9064 18.1183H60.07H60.0805Z" fill="white"/>
    <path d="M50.2731 42.8787H44.3254C46.8306 41.649 49.1548 40.0806 51.2327 38.2177L50.2731 42.8787Z" fill="white"/>
    <path d="M31.2704 36.8575L30.6693 39.8102C27.6322 39.3462 24.9747 38.0385 22.8656 35.94C21.949 35.0377 21.1676 34.0077 20.5457 32.8818H24.7111C24.922 33.1244 25.1329 33.3458 25.3438 33.5673C27.0311 35.2546 29.0347 36.3513 31.2914 36.8575H31.2704Z" fill="white"/>
    <path d="M32.1139 32.903L31.5866 35.4866C29.743 35.0684 28.0413 34.1739 26.6514 32.8925H32.135L32.1139 32.9135V32.903Z" fill="white"/>
    <path d="M14.2078 24.7619C14.6718 20.0692 16.7387 15.3027 20.1132 11.0529L18.9532 16.5154H19.7969C18.2151 19.5419 17.3714 22.7372 17.3714 25.8797V26.4703H16.8863L15.5998 32.8713H18.9427C19.669 34.3754 20.6461 35.7448 21.8321 36.9208C24.1521 39.2197 27.0627 40.6539 30.3739 41.16L30.0259 42.8789H24.2681C22.4629 42.0986 20.8182 40.9901 19.4172 39.6099C15.5154 35.7397 13.6805 30.467 14.2183 24.7408L14.2078 24.7619Z" fill="white"/>
    <path d="M37.0915 8.76453L36.7329 10.494H32.5991C34.0057 9.70946 35.519 9.13396 37.0915 8.78562V8.76453Z" fill="white"/>
    <path d="M37.4077 7.2881C34.803 7.76265 32.2721 8.86992 29.9943 10.4939H26.1558C29.6779 7.14047 33.8856 5.07356 37.9983 4.37756L37.3866 7.2881H37.4077Z" fill="white"/>
    <path d="M60.365 10.5044C59.4159 7.86803 57.8974 5.5164 55.8305 3.48114C54.7328 2.39385 53.4951 1.45762 52.1501 0.697144L59.8272 0.697144C62.4136 3.45416 64.2443 6.83226 65.1421 10.5044H60.3439H60.365Z" fill="white"/>
    <path d="M52.2767 7.0244C50.5894 5.36877 48.5647 4.15604 46.2342 3.43895C45.5904 3.24442 44.9354 3.08946 44.2727 2.97496L44.7156 0.697144H48.8283C51.0748 1.50681 53.1186 2.79495 54.8181 4.47241C56.5898 6.24404 57.9396 8.26876 58.8254 10.5044H56.9483L56.2839 13.7102L56.2312 13.4993C55.493 11.0738 54.1538 8.91203 52.2556 7.0244H52.2767Z" fill="white"/>
    <path d="M46.5295 31.5741C53.2364 24.9304 54.1644 15.8297 48.7019 10.4094C47.2255 8.95413 45.4011 7.95231 43.3448 7.45668L43.9775 4.35632C46.751 4.84141 49.2819 6.04359 51.2749 8.02613C53.9429 10.6625 55.3877 13.9316 55.5142 17.5803C55.5459 18.5676 55.4894 19.5557 55.3455 20.533C54.6917 25.0043 52.2557 29.5177 48.491 33.2402C45.2008 36.5093 40.9615 38.7766 36.7012 39.6097L37.2812 36.8046C40.5713 36.0875 43.8193 34.2737 46.5611 31.5741H46.5295Z" fill="white"/>
    <path d="M23.3296 25.0147C23.3296 22.1358 24.2998 19.1725 26.0714 16.5256H28.6234C27.8934 17.4482 27.2806 18.4577 26.799 19.5311C26.0925 21.0918 25.7445 22.6947 25.7445 24.2765C25.7445 25.0147 25.8183 25.774 25.987 26.4911H23.414C23.3612 26.006 23.3296 25.5209 23.3296 25.0147Z" fill="white"/>
    <path d="M33.063 16.5151C32.7608 16.7556 32.4721 17.0126 32.1983 17.285C30.3212 19.1515 29.2877 21.3977 29.2877 23.6122C29.2877 24.6457 29.5197 25.6158 29.9416 26.4595H27.4423C27.244 25.7381 27.1447 24.9931 27.147 24.2449C27.147 21.6086 28.3492 18.8246 30.4583 16.5257H33.0735L33.063 16.5151Z" fill="white"/>
    <path d="M18.8057 25.8794C18.8057 22.7158 19.702 19.5311 21.3998 16.5256H24.4158C22.8024 19.2042 21.9166 22.1463 21.9166 25.0252C21.9166 25.5209 21.9587 26.006 22.022 26.4805H18.8268C18.8161 26.2838 18.8091 26.0869 18.8057 25.89V25.8794Z" fill="white"/>
    <path d="M6.93139 28.0098C6.93139 31.2051 7.52193 34.2738 8.66084 37.1C9.49504 39.1819 10.6322 41.1292 12.0354 42.8789H5.73976C5.04898 41.7217 4.44959 40.5123 3.94703 39.2618C3.12022 37.2031 2.55342 35.0492 2.25977 32.8502L6.50957 12.1917C8.61866 8.33208 11.3605 4.70445 14.7139 1.39319C14.9565 1.15064 15.199 0.918645 15.4521 0.686646H21.4841C20.317 1.617 19.2011 2.60972 18.1412 3.66046C14.503 7.26699 11.6874 11.2532 9.75756 15.5241C7.89102 19.6368 6.94193 23.8549 6.94193 27.9888L6.93139 28.0098Z" fill="white"/>
    <path d="M2.65 39.7889C3.07271 40.8488 3.5623 41.8808 4.11582 42.8787H0.182373L1.52164 36.4038C1.8173 37.5514 2.18717 38.6787 2.62891 39.7783L2.65 39.7889Z" fill="white"/>
    <path d="M43.4186 21.1555C43.3132 22.79 42.5012 24.4245 41.1724 25.7322C40.5993 26.2964 39.9539 26.7821 39.2532 27.1769L41.4255 16.6842C41.6575 16.8318 41.8473 17.0006 42.0583 17.1798C43.0706 18.2027 43.5663 19.6053 43.4503 21.1871L43.4186 21.1555Z" fill="white"/>
    <path d="M48.4699 19.9741C48.4699 17.4959 47.5208 15.2603 45.7281 13.4887C44.8111 12.5835 43.7005 11.8984 42.4801 11.4851L43.039 8.80652C44.8317 9.22834 46.4135 10.1142 47.679 11.3901C52.5931 16.241 51.6651 24.4981 45.5383 30.5828C43.1761 32.9028 40.3921 34.5374 37.5659 35.2861L38.0932 32.7025C40.3077 32.0486 42.3852 30.8043 44.1357 29.0643C46.9197 26.3014 48.4593 23.0534 48.4593 19.9741H48.4699Z" fill="white"/>
    <path d="M43.155 28.073C41.7419 29.486 40.0968 30.4984 38.4412 31.1311L38.8946 28.9166C40.1137 28.3902 41.2227 27.6389 42.1637 26.7021C43.7455 25.1624 44.6946 23.2221 44.8422 21.2712C45.0004 19.3097 44.3677 17.5064 43.0495 16.1883C42.661 15.8114 42.2207 15.4918 41.7419 15.2392L42.227 12.8665C43.1761 13.225 44.0408 13.7628 44.7579 14.4799C46.2764 15.9879 47.0779 17.8861 47.0779 19.9846C47.0779 22.7053 45.6859 25.5737 43.1761 28.0835L43.155 28.073Z" fill="white"/>
    <path d="M20.5349 10.5044C21.2434 9.64946 21.993 8.82946 22.7811 8.0473C26.3665 4.4935 30.5425 2.03641 34.8029 0.697144H38.7574L38.2934 2.91168C33.3898 3.61823 28.5916 6.07531 24.7531 9.9033C24.5422 10.1142 24.3524 10.304 24.1625 10.5044H20.5349Z" fill="white"/>
    <path d="M11.0443 16.0935C12.9003 11.9808 15.621 8.14221 19.1326 4.66222C20.5759 3.22407 22.1271 1.89851 23.7726 0.697144L30.9435 0.697144C30.7326 0.802598 30.5006 0.908052 30.2686 1.01351C27.1577 2.53205 24.3105 4.56732 21.7901 7.05604C19.1326 9.69239 17.013 12.5607 15.4839 15.5978C14.0076 18.5506 13.1007 21.5876 12.8054 24.6247C12.2254 30.7411 14.2185 36.4145 18.4156 40.5799C19.2885 41.4489 20.2539 42.2198 21.2945 42.8788H13.8705C12.215 41.0261 10.8947 38.8994 9.96867 36.5938C8.89304 33.9152 8.35522 31.0258 8.35522 27.9993C8.35522 24.0447 9.26213 20.048 11.0443 16.0829V16.0935Z" fill="white"/>
    <path d="M8.89305 0.697144H13.4276C11.1076 3.01714 9.10396 5.48477 7.37451 8.07894L8.89305 0.697144Z" fill="white"/>
  </g>
  <defs>
    <clipPath id="clip0_4421_72408">
      <rect width="73.8175" height="42.1926" fill="white" transform="translate(0.182373 0.686523)"/>
    </clipPath>
  </defs>
</svg>