<svg width="175" height="32" viewBox="0 0 175 32" fill="none" xmlns="http://www.w3.org/2000/svg">
  <g id="Layer_1" clip-path="url(#clip0_4429_72936)">
    <path id="Vector"
      d="M24.4816 10.8172V10.6366C24.4816 7.56057 23.5064 5.00828 21.6524 3.23853C19.5576 1.24003 16.4153 0.180587 12.5749 0.180587H0V32H7.12716V21.6283H11.2144L17.3123 32H25.4748L18.3898 20.2077C21.2009 18.9857 24.4816 16.3672 24.4816 10.8172ZM17.3062 10.9556V10.9977C17.3062 13.8811 15.3439 15.6027 12.0512 15.6027H7.12716V6.35064H11.9067C15.4342 6.35064 17.3062 7.94582 17.3062 10.9556ZM125.135 0L113.168 32H120.361L122.775 25.1497H133.977L136.439 32H143.825L131.853 0H125.135ZM131.804 19.1181H124.948L128.397 9.37848L131.804 19.1181ZM164.641 15.7291L174.176 0.180587H166.242L160.602 10.2634L155.058 0.180587H146.938L156.376 15.8194L146.51 32H154.444L160.464 21.3273L166.435 32H174.555L164.641 15.7291ZM39.1633 25.836V19.064H51.9308V12.8999H39.1633V6.35064H53.6825V0.180587H32.0843V32H45.4838L48.7404 25.836H39.1693H39.1633ZM100.262 0.180587L93.0625 10.4921L85.7667 0.180587H85.6825L78.3627 14.0497V32H85.3032V12.298L92.8036 22.0617L92.8397 22.1279H93.1407L100.725 12.2077V32H107.714V0.180587H100.262Z"
      fill="#87807b" />
    <path id="Vector_2" d="M69.5862 0.180542L52.7916 32H61.4478L78.2484 0.180542H69.5862Z" fill="#87807b" />
  </g>
  <defs>
    <clipPath id="clip0_4429_72936">
      <rect width="174.555" height="32" fill="white" />
    </clipPath>
  </defs>
</svg>