<svg width="57" height="33" viewBox="0 0 56 32" fill="none" xmlns="http://www.w3.org/2000/svg">
  <g id="ef-education-first-seeklogo.com 1" clip-path="url(#clip0_4429_72879)">
    <g id="Group">
      <path id="Vector"
        d="M25.0335 13.3405C25.4513 12.9238 25.9219 12.5635 26.4331 12.2688L24.9535 19.5469H23.8098C23.3699 18.9471 23.146 18.2113 23.146 17.3875C23.146 15.9878 23.8098 14.5482 25.0335 13.3405Z"
        fill="#87807b" />
      <path id="Vector_2"
        d="M27.4649 30.616C31.0479 30.0241 34.631 28.1766 37.3983 25.4173C38.3582 24.4701 39.2259 23.4337 39.9896 22.3221L39.1099 26.625C38.9899 26.737 38.8699 26.849 38.7659 26.9609C36.4983 29.2023 33.7688 30.9219 30.768 31.9996H27.1689L27.4569 30.624L27.4649 30.616Z"
        fill="#87807b" />
      <path id="Vector_3"
        d="M50.7388 14.0605C50.7628 13.7806 50.7868 13.5006 50.8188 13.2207H52.9782L51.4586 20.7707H48.9792C49.899 18.5713 50.4989 16.3159 50.7388 14.0525V14.0605Z"
        fill="#87807b" />
      <path id="Vector_4"
        d="M49.7471 13.2207C49.7231 13.4606 49.6991 13.7006 49.6671 13.9405C49.4272 16.2439 48.8034 18.5393 47.8276 20.7628H44.5325C45.4922 18.7633 46.1321 16.6838 46.372 14.6043C46.436 14.1485 46.476 13.6846 46.5 13.2207H49.7391H49.7471Z"
        fill="#87807b" />
      <path id="Vector_5"
        d="M52.9064 0.00805664H55.9856L54.9139 5.22271C54.4785 3.40445 53.8063 1.65125 52.9144 0.00805664L52.9064 0.00805664Z"
        fill="#87807b" />
      <path id="Vector_6"
        d="M51.6826 0.00805664C52.1824 0.865095 52.6182 1.75797 52.9862 2.67936C53.5936 4.21301 54.0178 5.81301 54.2499 7.44613H50.3629C49.7336 4.70743 48.4615 2.15783 46.6519 0.00805664L51.6905 0.00805664H51.6826Z"
        fill="#87807b" />
      <path id="Vector_7"
        d="M45.4284 13.2207C45.4044 13.6366 45.3724 14.0605 45.3244 14.4844C45.0605 16.5958 44.3886 18.7233 43.3409 20.7628H40.9415C41.9413 18.9632 42.5971 17.0837 42.877 15.1882C42.973 14.5244 43.021 13.8685 43.021 13.2207H45.4204H45.4284Z"
        fill="#87807b" />
      <path id="Vector_8" d="M37.9901 31.9997H33.4792C35.3792 31.067 37.142 29.8775 38.7179 28.4646L37.9901 31.9997Z"
        fill="#87807b" />
      <path id="Vector_9"
        d="M23.5779 27.4331L23.122 29.6725C20.8186 29.3206 18.8031 28.3288 17.2035 26.7372C16.5083 26.0529 15.9157 25.2717 15.444 24.4178H18.6032C18.7631 24.6018 18.9231 24.7698 19.083 24.9377C20.3627 26.2174 21.8823 27.0492 23.5939 27.4331H23.5779Z"
        fill="#87807b" />
      <path id="Vector_10"
        d="M24.2176 24.4338L23.8177 26.3933C22.4195 26.0761 21.1289 25.3977 20.0747 24.4258H24.2336L24.2176 24.4418V24.4338Z"
        fill="#87807b" />
      <path id="Vector_11"
        d="M10.6372 18.2594C10.9892 14.7003 12.5567 11.0852 15.1161 7.86206L14.2363 12.005H14.8761C13.6765 14.3004 13.0366 16.7238 13.0366 19.1071V19.555H12.6687L11.693 24.4098H14.2283C14.7792 25.5505 15.5202 26.5891 16.4197 27.481C18.1793 29.2245 20.3867 30.3122 22.8981 30.6961L22.6341 31.9998H18.2673C16.8982 31.408 15.6507 30.5673 14.5882 29.5205C11.629 26.5852 10.2374 22.5862 10.6452 18.2434L10.6372 18.2594Z"
        fill="#87807b" />
      <path id="Vector_12"
        d="M27.9928 6.12659L27.7209 7.43825H24.5857C25.6525 6.84325 26.8002 6.40678 27.9928 6.14258V6.12659Z"
        fill="#87807b" />
      <path id="Vector_13"
        d="M28.2326 5.00675C26.2572 5.36665 24.3377 6.20643 22.6101 7.43812H19.6989C22.3702 4.89477 25.5613 3.32718 28.6805 2.79932L28.2166 5.00675H28.2326Z"
        fill="#87807b" />
      <path id="Vector_14"
        d="M45.6441 7.44613C44.9243 5.44665 43.7726 3.66311 42.205 2.11951C41.3724 1.29489 40.4337 0.584824 39.4137 0.00805664L45.2362 0.00805664C47.1978 2.09905 48.5862 4.66109 49.2671 7.44613H45.6281H45.6441Z"
        fill="#87807b" />
      <path id="Vector_15"
        d="M39.5096 4.80681C38.23 3.55114 36.6944 2.63138 34.9268 2.08752C34.4386 1.93998 33.9418 1.82246 33.4392 1.73561L33.7751 0.00805664H36.8943C38.5981 0.622129 40.1482 1.59909 41.4371 2.87132C42.7808 4.21497 43.8045 5.75057 44.4764 7.44613H43.0527L42.5489 9.8775L42.5089 9.71754C41.949 7.87802 40.9333 6.23844 39.4936 4.80681H39.5096Z"
        fill="#87807b" />
      <path id="Vector_16"
        d="M35.1508 23.4259C40.2375 18.3872 40.9413 11.485 36.7984 7.37401C35.6787 6.2703 34.2951 5.5105 32.7355 5.13459L33.2153 2.7832C35.3188 3.15111 37.2383 4.06287 38.7499 5.56648C40.7734 7.56596 41.8691 10.0453 41.9651 12.8126C41.9891 13.5614 41.9463 14.3108 41.8371 15.052C41.3412 18.4431 39.4937 21.8663 36.6385 24.6895C34.1431 27.1689 30.9279 28.8884 27.6968 29.5203L28.1367 27.3928C30.632 26.849 33.0954 25.4733 35.1748 23.4259H35.1508Z"
        fill="#87807b" />
      <path id="Vector_17"
        d="M17.5554 18.4511C17.5554 16.2677 18.2912 14.0203 19.6349 12.0128H21.5704C21.0168 12.7125 20.552 13.4782 20.1867 14.2922C19.6509 15.4759 19.3869 16.6916 19.3869 17.8913C19.3869 18.4511 19.4429 19.027 19.5709 19.5709H17.6194C17.5794 19.203 17.5554 18.835 17.5554 18.4511Z"
        fill="#87807b" />
      <path id="Vector_18"
        d="M24.9376 12.0049C24.7083 12.1873 24.4894 12.3822 24.2817 12.5887C22.8581 14.0044 22.0743 15.7079 22.0743 17.3875C22.0743 18.1713 22.2502 18.9071 22.5702 19.5469H20.6747C20.5243 18.9998 20.4489 18.4348 20.4507 17.8674C20.4507 15.8679 21.3625 13.7564 22.9621 12.0129H24.9456L24.9376 12.0049Z"
        fill="#87807b" />
      <path id="Vector_19"
        d="M14.1244 19.107C14.1244 16.7076 14.8042 14.2922 16.0919 12.0128H18.3793C17.1556 14.0443 16.4838 16.2757 16.4838 18.4591C16.4838 18.8351 16.5158 19.203 16.5638 19.5629H14.1404C14.1323 19.4137 14.127 19.2644 14.1244 19.115V19.107Z"
        fill="#87807b" />
      <path id="Vector_20"
        d="M5.11864 20.7226C5.11864 23.146 5.56653 25.4734 6.4303 27.6168C7.06298 29.1958 7.9254 30.6727 8.98964 31.9997H4.21488C3.69098 31.1221 3.23638 30.2048 2.85523 29.2564C2.22815 27.695 1.79828 26.0615 1.57556 24.3937L4.79873 8.72574C6.39831 5.7985 8.47777 3.04721 11.0211 0.535861C11.2051 0.351909 11.389 0.175954 11.581 0H16.1558C15.2707 0.705605 14.4243 1.45851 13.6204 2.25542C10.8612 4.99071 8.72571 8.01393 7.26209 11.2531C5.84645 14.3723 5.12664 17.5715 5.12664 20.7066L5.11864 20.7226Z"
        fill="#87807b" />
      <path id="Vector_21"
        d="M1.87152 29.6563C2.19211 30.4602 2.56343 31.2429 2.98323 31.9997H0L1.01574 27.089C1.23997 27.9594 1.52049 28.8143 1.85552 29.6483L1.87152 29.6563Z"
        fill="#87807b" />
      <path id="Vector_22"
        d="M32.7915 15.5242C32.7115 16.7639 32.0957 18.0035 31.0879 18.9953C30.6532 19.4232 30.1638 19.7916 29.6323 20.091L31.2799 12.1331C31.4559 12.245 31.5998 12.373 31.7598 12.509C32.5276 13.2848 32.9035 14.3485 32.8155 15.5482L32.7915 15.5242Z"
        fill="#87807b" />
      <path id="Vector_23"
        d="M36.6225 14.6281C36.6225 12.7486 35.9027 11.0531 34.5431 9.70941C33.8476 9.02292 33.0053 8.50332 32.0797 8.1898L32.5036 6.15833C33.8632 6.47824 35.0629 7.15007 36.0227 8.11782C39.7497 11.7969 39.0459 18.0592 34.3991 22.674C32.6076 24.4336 30.4961 25.6733 28.3527 26.2411L28.7526 24.2816C30.4321 23.7858 32.0077 22.842 33.3354 21.5223C35.4468 19.4269 36.6145 16.9635 36.6145 14.6281H36.6225Z"
        fill="#87807b" />
      <path id="Vector_24"
        d="M32.5916 20.7707C31.5198 21.8424 30.2722 22.6102 29.0165 23.0901L29.3604 21.4105C30.2849 21.0113 31.1261 20.4415 31.8398 19.731C33.0394 18.5633 33.7593 17.0916 33.8712 15.612C33.9912 14.1244 33.5113 12.7568 32.5116 11.757C32.2169 11.4712 31.8829 11.2288 31.5198 11.0372L31.8877 9.23767C32.6075 9.5096 33.2634 9.91749 33.8072 10.4614C34.9589 11.6051 35.5668 13.0447 35.5668 14.6363C35.5668 16.6997 34.5111 18.8752 32.6076 20.7787L32.5916 20.7707Z"
        fill="#87807b" />
      <path id="Vector_25"
        d="M15.4359 7.44613C15.9732 6.79773 16.5418 6.17582 17.1395 5.58261C19.8588 2.88731 23.0259 1.02379 26.2571 0.00805664H29.2563L28.9044 1.68762C25.1854 2.22348 21.5463 4.087 18.6351 6.99025C18.4751 7.15021 18.3312 7.29417 18.1872 7.44613H15.4359Z"
        fill="#87807b" />
      <path id="Vector_26"
        d="M8.23796 11.685C9.64559 8.56584 11.7091 5.6546 14.3724 3.01528C15.4669 1.92455 16.6434 0.919203 17.8915 0.00805664L23.33 0.00805664C23.1701 0.0880359 22.9941 0.168015 22.8182 0.247995C20.4588 1.3997 18.2994 2.9433 16.3878 4.83081C14.3724 6.83029 12.7648 9.00573 11.6051 11.3091C10.4854 13.5486 9.79755 15.852 9.57361 18.1554C9.13373 22.7942 10.6453 27.097 13.8285 30.2562C14.4906 30.9153 15.2227 31.4999 16.0119 31.9998H10.3814C9.12584 30.5946 8.12448 28.9816 7.42217 27.233C6.60638 25.2015 6.19849 23.0101 6.19849 20.7147C6.19849 17.7155 6.88631 14.6843 8.23796 11.677V11.685Z"
        fill="#87807b" />
      <path id="Vector_27"
        d="M6.60641 0.00805664H10.0455C8.28598 1.7676 6.76637 3.63912 5.45471 5.60661L6.60641 0.00805664Z"
        fill="#87807b" />
    </g>
  </g>
  <defs>
    <clipPath id="clip0_4429_72879">
      <rect width="55.9852" height="32" fill="white" />
    </clipPath>
  </defs>
</svg>