<svg width="161" height="32" viewBox="0 0 161 32" fill="none" xmlns="http://www.w3.org/2000/svg">
  <g id="Symbols">
    <g id="Footer-_x2F_-Desktop">
      <g id="TMO_Business_LOCKUP_RGB_OnK">
        <g id="Group">
          <g id="Shape">
            <path id="Vector" d="M0 21.098H6.38472V14.7401H0V21.098Z" fill="#87807b" />
            <path id="Vector_2"
              d="M15.3448 1.75619C20.5491 1.83667 23.6342 5.29729 24.0902 11.6015L25.7803 11.3333L25.4584 0.253906H0.321919L0 11.3333L1.69007 11.6015C2.14612 5.29729 5.17752 1.83667 10.4355 1.75619V24.9612C10.4355 29.1997 9.71121 29.8704 5.1507 29.8972V31.6678H20.6296V29.8972C16.0691 29.8436 15.3448 29.1729 15.3448 24.9612V1.75619Z"
              fill="#87807b" />
            <path id="Vector_3" d="M19.3421 21.098H25.7268V14.7401H19.3421V21.098Z" fill="#87807b" />
          </g>
          <path id="Shape_1_"
            d="M27.4436 9.8846H27.6046C27.7655 9.8846 27.846 9.93825 27.846 10.0724C27.846 10.2065 27.7655 10.287 27.5777 10.287H27.4436V9.8846ZM27.846 10.448C28.0338 10.3675 28.1143 10.2602 28.1143 10.0724C28.1143 9.93825 28.0606 9.83095 27.9801 9.77729C27.8728 9.69681 27.7655 9.66999 27.6046 9.66999H27.1485V11.0918H27.4168V10.5284H27.5777L27.9533 11.0918H28.2752L27.846 10.448ZM26.6925 9.42855C26.4242 9.69682 26.3169 9.99191 26.3169 10.3675C26.3169 10.7431 26.451 11.0381 26.6925 11.3064C26.9607 11.5747 27.2558 11.682 27.6314 11.682C28.007 11.682 28.3021 11.5478 28.5703 11.3064C28.8386 11.0381 28.9459 10.7431 28.9459 10.3675C28.9459 10.0187 28.8118 9.69681 28.5703 9.45537C28.3021 9.18711 28.007 9.0798 27.6314 9.0798C27.2558 9.05297 26.9339 9.18711 26.6925 9.42855ZM26.8534 11.1454C26.6388 10.9308 26.5315 10.6894 26.5315 10.3943C26.5315 10.0992 26.6388 9.85777 26.8534 9.64316C27.068 9.42855 27.3095 9.32124 27.6046 9.32124C27.8997 9.32124 28.1679 9.42855 28.3557 9.64316C28.5703 9.85777 28.6776 10.0992 28.6776 10.3943C28.6776 10.6894 28.5703 10.9577 28.3557 11.1454C28.1411 11.3601 27.8997 11.4674 27.6046 11.4674C27.3095 11.4405 27.068 11.3601 26.8534 11.1454Z"
            fill="#87807b" />
        </g>
        <g id="Group_1_">
          <g id="Shape_2_">
            <path id="Vector_4" d="M45.8786 14.4601V2.92472H42.4448V0.349365H52.3974V2.92472H48.9368V14.4601H45.8786Z"
              fill="#87807b" />
            <path id="Vector_5" d="M56.4204 7.88733V10.4359H51.6989V7.88733H56.4204Z" fill="#87807b" />
            <path id="Vector_6"
              d="M59.8026 14.46V0.322388H63.9338L66.4555 10.0068L68.9236 0.322388H73.0012V14.46H70.1039V4.61463L67.6627 14.46H65.1947L62.6998 4.74877V14.46H59.8026Z"
              fill="#87807b" />
            <path id="Vector_7"
              d="M80.4576 0C82.094 0 83.4353 0.617015 84.5352 1.82421C85.7692 3.21919 86.413 5.07022 86.413 7.40413C86.413 9.38929 85.9302 11.0794 84.9912 12.4207C84.4279 13.2255 83.7304 13.8425 82.8719 14.2449C82.1208 14.6205 81.2623 14.8083 80.3234 14.8083C78.3114 14.8083 76.7555 13.9766 75.6288 12.367C74.7167 11.0525 74.2606 9.41612 74.2606 7.43096C74.2606 5.09705 74.8508 3.24602 76.058 1.93151C77.1847 0.617014 78.6602 0 80.4576 0ZM80.3234 2.57535C79.4113 2.57535 78.687 3.0314 78.1773 3.88985C77.6139 4.8556 77.3457 5.98233 77.3457 7.35048C77.3457 8.77229 77.6139 9.95265 78.1773 10.8916C78.4187 11.3208 78.7943 11.6695 79.2772 11.9378C79.6259 12.1256 80.0015 12.2329 80.4039 12.2329C80.9941 12.2329 81.5038 12.0183 81.9598 11.6159C82.4159 11.2135 82.7915 10.5697 83.0597 9.71121C83.2743 8.96007 83.3816 8.1821 83.3816 7.3773C83.3816 5.98232 83.1134 4.8556 82.5768 3.88985C82.0135 3.0314 81.2892 2.57535 80.3234 2.57535Z"
              fill="#87807b" />
            <path id="Vector_8"
              d="M87.6473 14.46V0.295532H92.7176C93.737 0.295532 94.5149 0.40284 95.0515 0.590626C95.8563 0.858891 96.4464 1.31494 96.822 1.95878C97.1708 2.52214 97.3317 3.11232 97.3317 3.78298C97.3317 5.17796 96.6611 6.17055 95.2929 6.81439C97.0366 7.40457 97.8951 8.55811 97.8951 10.3287C97.8951 11.8846 97.3049 13.0113 96.1514 13.7893C95.427 14.2722 94.4345 14.5136 93.2541 14.5136H87.6473V14.46ZM90.7324 6.03641H92.1005C92.8517 6.03641 93.3882 5.92911 93.7101 5.68767C94.1394 5.36575 94.354 4.9097 94.354 4.31951C94.354 3.67568 94.0857 3.21963 93.576 2.92454C93.3077 2.76358 92.798 2.68309 92.1005 2.68309H90.7324V6.03641ZM90.7324 12.0456H92.3956C93.2541 12.0456 93.8711 11.9114 94.2198 11.6163C94.6759 11.2676 94.8905 10.7579 94.8905 10.0604C94.8905 9.28242 94.5954 8.71907 94.0052 8.42398C93.6565 8.2362 93.0931 8.12889 92.2883 8.12889H90.7592L90.7324 12.0456Z"
              fill="#87807b" />
            <path id="Vector_9" d="M99.1564 14.46V0.322388H102.215V14.46H99.1564Z" fill="#87807b" />
            <path id="Vector_10" d="M103.986 14.46V0.322388H107.044V11.831H112.624V14.46H103.986Z" fill="#87807b" />
            <path id="Vector_11"
              d="M113.858 14.46V0.322388H122.898V2.89774H116.889V5.92913H122.389V8.39718H116.889V11.8846H123.032V14.46H113.858Z"
              fill="#87807b" />
          </g>
          <g id="Shape_3_">
            <path id="Vector_12"
              d="M42.59 31.6245V17.4601H51.2013V20.0623H45.6214V23.3619H50.4501V25.83H45.6214V31.6245H42.59Z"
              fill="#87807b" />
            <path id="Vector_13"
              d="M57.6668 17.165C59.3032 17.165 60.6445 17.7821 61.7444 18.9892C62.9784 20.3842 63.6223 22.2353 63.6223 24.5692C63.6223 26.5543 63.1394 28.2444 62.2005 29.5857C61.6371 30.3905 60.9396 31.0075 60.0812 31.4099C59.33 31.7855 58.4716 31.9733 57.5326 31.9733C55.5207 31.9733 53.9647 31.1417 52.838 29.5321C51.9259 28.2176 51.4698 26.5812 51.4698 24.596C51.4698 22.2621 52.06 20.4111 53.2672 19.0966C54.3939 17.7821 55.8694 17.165 57.6668 17.165ZM57.5326 19.7672C56.6205 19.7672 55.8962 20.2233 55.3865 21.0817C54.8232 22.0475 54.5549 23.1742 54.5549 24.5423C54.5549 25.9641 54.8232 27.1445 55.3865 28.0834C55.628 28.5127 56.0035 28.8614 56.4864 29.1297C56.8352 29.3175 57.2107 29.4248 57.6131 29.4248C58.2033 29.4248 58.713 29.2102 59.1691 28.8078C59.6251 28.4054 60.0007 27.7615 60.269 26.9031C60.4836 26.1519 60.5909 25.374 60.5909 24.5692C60.5909 23.1742 60.3226 22.0475 59.7861 21.0817C59.2227 20.1964 58.4716 19.7672 57.5326 19.7672Z"
              fill="#87807b" />
            <path id="Vector_14"
              d="M64.8838 31.6245V17.4601H70.3296C71.7782 17.4601 72.8781 17.782 73.6292 18.399C74.5413 19.1233 74.9706 20.1159 74.9706 21.4036C74.9706 22.4766 74.6487 23.3619 74.0316 24.1131C73.7634 24.435 73.3878 24.7033 72.9318 24.9179C73.5219 25.1057 73.9512 25.4544 74.2731 26.0177C74.4877 26.3397 74.6218 26.8494 74.7291 27.4932C74.7828 27.7346 74.8364 28.4321 74.9169 29.6125C74.9706 30.3637 75.0511 30.8734 75.1584 31.1148C75.212 31.2489 75.2925 31.4367 75.4266 31.6245H72.2879C72.1806 31.3831 72.127 31.1148 72.0733 30.8197C72.0465 30.6587 71.9928 30.0417 71.9392 28.9955C71.8587 28.0029 71.7246 27.3591 71.5636 27.0372C71.349 26.5811 71.0271 26.286 70.5978 26.1519C70.3832 26.0982 70.0613 26.0446 69.6589 26.0446H67.9152V31.5708H64.8838V31.6245ZM67.942 23.7911H69.6321C70.571 23.7911 71.188 23.6034 71.5368 23.201C71.8319 22.8522 71.9928 22.3962 71.9928 21.7792C71.9928 21.0548 71.7514 20.5183 71.2417 20.1696C70.9466 19.955 70.4369 19.8745 69.6857 19.8745H67.942V23.7911Z"
              fill="#87807b" />
            <path id="Vector_15"
              d="M79.555 31.6245V17.4601H84.6252C85.6446 17.4601 86.4226 17.5674 86.9591 17.7552C87.7639 18.0234 88.3541 18.4795 88.7297 19.1233C89.0784 19.6867 89.2394 20.2769 89.2394 20.9475C89.2394 22.3425 88.5687 23.3351 87.2006 23.9789C88.9443 24.5691 89.8027 25.7227 89.8027 27.4932C89.8027 29.0492 89.2125 30.1759 88.059 30.9538C87.3347 31.4367 86.3421 31.6782 85.1617 31.6782H79.5818V31.6245H79.555ZM82.6132 23.201H83.9814C84.7325 23.201 85.269 23.0937 85.591 22.8522C86.0202 22.5303 86.2348 22.0742 86.2348 21.4841C86.2348 20.8402 85.9665 20.3842 85.4568 20.0891C85.1886 19.9281 84.6789 19.8476 83.9814 19.8476H82.6132V23.201ZM82.6132 29.2101H84.2765C85.1349 29.2101 85.7519 29.076 86.1007 28.7809C86.5567 28.4321 86.7713 27.9224 86.7713 27.2249C86.7713 26.447 86.4762 25.8836 85.8861 25.5885C85.5373 25.4007 84.9739 25.2934 84.1692 25.2934H82.6132V29.2101Z"
              fill="#87807b" />
            <path id="Vector_16"
              d="M90.905 17.4601H93.8023V25.6958C93.8023 27.064 93.9901 27.9761 94.3656 28.5126C94.768 29.076 95.385 29.3711 96.2167 29.3711C97.1288 29.3711 97.7458 28.9955 98.0677 28.2175C98.3091 27.681 98.4164 26.8494 98.4164 25.6958V17.4869H101.448V25.5885C101.448 26.8762 101.367 27.8151 101.18 28.4858C100.858 29.6125 100.294 30.471 99.4895 31.088C98.6847 31.705 97.558 32.0001 96.163 32.0001C94.1242 32.0001 92.6756 31.3026 91.7903 29.9613C91.4147 29.3442 91.1464 28.6199 91.0123 27.8151C90.9318 27.2786 90.8782 26.5275 90.8782 25.5885L90.905 17.4601Z"
              fill="#87807b" />
            <path id="Vector_17"
              d="M102.412 27.4933H105.47C105.551 28.0566 105.685 28.459 105.846 28.7273C106.221 29.2906 106.731 29.5589 107.402 29.5589C108.019 29.5589 108.475 29.3711 108.824 28.9955C109.119 28.6736 109.253 28.2712 109.253 27.7884C109.253 27.225 109.011 26.7689 108.555 26.3934C108.341 26.2056 108.046 26.0446 107.697 25.9105C107.59 25.8568 107.241 25.7495 106.651 25.5349C105.47 25.1325 104.639 24.7033 104.102 24.3009C103.056 23.4693 102.546 22.423 102.546 21.1085C102.546 19.955 102.922 19.0697 103.646 18.3454C104.451 17.5406 105.578 17.165 106.972 17.165C108.743 17.165 110.058 17.7821 110.97 18.9624C111.399 19.5258 111.667 20.2769 111.801 21.189H108.85C108.77 20.6257 108.609 20.2501 108.341 19.9818C108.019 19.6867 107.563 19.5526 106.999 19.5526C106.516 19.5526 106.141 19.6599 105.873 19.9013C105.551 20.1696 105.39 20.5184 105.39 21.0012C105.39 21.5378 105.631 21.967 106.087 22.2889C106.436 22.5303 107.133 22.8254 108.153 23.1742C109.36 23.5766 110.299 24.0326 110.916 24.5423C111.882 25.3203 112.365 26.3129 112.365 27.6006C112.365 28.8882 111.909 29.9345 111.023 30.7393C110.084 31.5709 108.85 32.0001 107.348 32.0001C105.497 32.0001 104.156 31.3026 103.244 29.9345C102.788 29.2102 102.519 28.4054 102.412 27.4933Z"
              fill="#87807b" />
            <path id="Vector_18" d="M113.492 31.6245V17.4601H116.55V31.6245H113.492Z" fill="#87807b" />
            <path id="Vector_19"
              d="M118.321 31.6245V17.4601H121.406L125.859 26.5811V17.4601H128.784V31.6245H125.752L121.272 22.5303V31.6245H118.321Z"
              fill="#87807b" />
            <path id="Vector_20"
              d="M130.582 31.6245V17.4601H139.622V20.0623H133.613V23.0937H139.113V25.5617H133.613V29.0492H139.756V31.6245H130.582Z"
              fill="#87807b" />
            <path id="Vector_21"
              d="M140.56 27.4933H143.619C143.699 28.0566 143.833 28.459 143.994 28.7273C144.37 29.2906 144.879 29.5589 145.55 29.5589C146.167 29.5589 146.623 29.3711 146.972 28.9955C147.267 28.6736 147.401 28.2712 147.401 27.7884C147.401 27.225 147.16 26.7689 146.704 26.3934C146.489 26.2056 146.194 26.0446 145.845 25.9105C145.738 25.8568 145.389 25.7495 144.799 25.5349C143.619 25.1325 142.787 24.7033 142.25 24.3009C141.204 23.4693 140.694 22.423 140.694 21.1085C140.694 19.955 141.07 19.0697 141.794 18.3454C142.599 17.5406 143.726 17.165 145.121 17.165C146.891 17.165 148.206 17.7821 149.118 18.9624C149.547 19.5258 149.815 20.2769 149.95 21.189H146.999C146.918 20.6257 146.757 20.2501 146.489 19.9818C146.167 19.6867 145.711 19.5526 145.148 19.5526C144.665 19.5526 144.289 19.6599 144.021 19.9013C143.699 20.1696 143.538 20.5184 143.538 21.0012C143.538 21.5378 143.779 21.967 144.236 22.2889C144.584 22.5303 145.282 22.8254 146.301 23.1742C147.508 23.5766 148.447 24.0326 149.064 24.5423C150.03 25.3203 150.513 26.3129 150.513 27.6006C150.513 28.8882 150.057 29.9345 149.172 30.7393C148.233 31.5709 146.999 32.0001 145.496 32.0001C143.645 32.0001 142.304 31.3026 141.392 29.9345C140.936 29.2102 140.668 28.4054 140.56 27.4933Z"
              fill="#87807b" />
            <path id="Vector_22"
              d="M150.968 27.4933H154.026C154.107 28.0566 154.241 28.459 154.402 28.7273C154.777 29.2906 155.287 29.5589 155.958 29.5589C156.575 29.5589 157.031 29.3711 157.38 28.9955C157.675 28.6736 157.809 28.2712 157.809 27.7884C157.809 27.225 157.567 26.7689 157.111 26.3934C156.897 26.2056 156.602 26.0446 156.253 25.9105C156.146 25.8568 155.797 25.7495 155.207 25.5349C154.026 25.1325 153.195 24.7033 152.658 24.3009C151.612 23.4693 151.102 22.423 151.102 21.1085C151.102 19.955 151.478 19.0697 152.202 18.3454C153.007 17.5406 154.134 17.165 155.529 17.165C157.299 17.165 158.614 17.7821 159.526 18.9624C159.955 19.5258 160.223 20.2769 160.357 21.189H157.406C157.326 20.6257 157.165 20.2501 156.897 19.9818C156.575 19.6867 156.119 19.5526 155.555 19.5526C155.072 19.5526 154.697 19.6599 154.429 19.9013C154.107 20.1696 153.946 20.5184 153.946 21.0012C153.946 21.5378 154.187 21.967 154.643 22.2889C154.992 22.5303 155.689 22.8254 156.709 23.1742C157.916 23.5766 158.855 24.0326 159.472 24.5423C160.438 25.3203 160.921 26.3129 160.921 27.6006C160.921 28.8882 160.465 29.9345 159.579 30.7393C158.64 31.5709 157.406 32.0001 155.904 32.0001C154.053 32.0001 152.712 31.3026 151.8 29.9345C151.344 29.2102 151.075 28.4054 150.968 27.4933Z"
              fill="#87807b" />
          </g>
          <path id="Rectangle-path" d="M34.6528 0.214966H33.5797V31.6825H34.6528V0.214966Z" fill="#87807b" />
        </g>
      </g>
    </g>
  </g>
</svg>