<svg width="93" height="32" viewBox="0 0 93 32" fill="none" xmlns="http://www.w3.org/2000/svg">
  <g id="Uber" clip-path="url(#clip0_4429_72930)">
    <g id="Group">
      <path id="Vector"
        d="M5.30335 22.854C5.69289 23.8877 6.23219 24.7716 6.92136 25.5057C7.61054 26.2398 8.427 26.8016 9.37076 27.1911C10.3146 27.5806 11.3408 27.7754 12.4495 27.7754C13.5282 27.7754 14.5394 27.5731 15.4832 27.1685C16.4271 26.764 17.251 26.1947 17.9551 25.4607C18.6592 24.7266 19.206 23.8503 19.5956 22.8315C19.9851 21.8128 20.1798 20.6743 20.1798 19.4158V0H24.8989V31.4607H20.2248V28.5393C19.1761 29.6479 17.9401 30.5018 16.5169 31.1012C15.0936 31.7004 13.5581 32 11.9102 32C10.2322 32 8.66667 31.7078 7.21344 31.1236C5.76031 30.5393 4.5018 29.7079 3.43821 28.6292C2.37461 27.5505 1.53557 26.2548 0.921383 24.7416C0.307095 23.2285 0 21.5432 0 19.6854V0H4.71909V19.4158C4.71909 20.6743 4.91381 21.8202 5.30335 22.854Z"
        fill="#87807b" />
      <path id="Vector_2"
        d="M33.0334 0V11.4607C34.082 10.412 35.2956 9.5806 36.6739 8.96631C38.0521 8.35202 39.5503 8.04493 41.1682 8.04493C42.8462 8.04493 44.419 8.35948 45.8873 8.98868C47.3554 9.61789 48.6288 10.4718 49.7075 11.5506C50.7862 12.6293 51.6401 13.9026 52.2694 15.3707C52.8986 16.839 53.2131 18.397 53.2131 20.045C53.2131 21.6928 52.8986 23.2434 52.2694 24.6966C51.6401 26.1498 50.7862 27.4158 49.7075 28.4943C48.6288 29.573 47.3554 30.4269 45.8873 31.0561C44.419 31.6853 42.8461 31.9999 41.1682 31.9999C39.5502 31.9999 38.0446 31.6928 36.6514 31.0785C35.2581 30.4643 34.0371 29.6328 32.9884 28.5842V31.4606H28.4941V0H33.0334ZM33.5502 23.1461C33.9547 24.1049 34.5165 24.9439 35.2356 25.663C35.9547 26.3821 36.7937 26.9514 37.7525 27.3709C38.7113 27.7904 39.745 28.0001 40.8536 28.0001C41.9324 28.0001 42.951 27.7904 43.9098 27.3709C44.8685 26.9514 45.6999 26.3822 46.4042 25.663C47.1083 24.944 47.6701 24.1049 48.0896 23.1461C48.509 22.1873 48.7188 21.1536 48.7188 20.045C48.7188 18.9363 48.509 17.8951 48.0896 16.9213C47.6701 15.9475 47.1083 15.1011 46.4042 14.382C45.7 13.663 44.8686 13.1011 43.9098 12.6967C42.9509 12.2922 41.9323 12.0899 40.8536 12.0899C39.775 12.0899 38.7563 12.2921 37.7975 12.6967C36.8387 13.1012 35.9998 13.663 35.2806 14.382C34.5616 15.1011 33.9922 15.9475 33.5728 16.9213C33.1533 17.8951 32.9436 18.9363 32.9436 20.045C32.9435 21.1536 33.1457 22.1873 33.5502 23.1461Z"
        fill="#87807b" />
      <path id="Vector_3"
        d="M55.7673 15.4156C56.3665 13.9773 57.1906 12.7115 58.2392 11.6179C59.2878 10.5242 60.5313 9.66281 61.9696 9.0336C63.4078 8.4044 64.9658 8.08984 66.6437 8.08984C68.2917 8.08984 69.8198 8.38948 71.228 8.98865C72.6362 9.58792 73.8497 10.4194 74.8684 11.4831C75.8872 12.5467 76.6813 13.8052 77.2504 15.2583C77.8197 16.7116 78.1044 18.2921 78.1044 20V21.4832H59.4527C59.6026 22.412 59.9022 23.2734 60.3516 24.0673C60.8011 24.8613 61.3628 25.5505 62.037 26.1347C62.7111 26.7191 63.4752 27.1761 64.3292 27.5055C65.1831 27.8351 66.0894 28 67.0483 28C69.7749 28 71.9772 26.8763 73.6551 24.6291L76.9359 27.056C75.7974 28.5841 74.3892 29.7827 72.7113 30.6516C71.0333 31.5204 69.1457 31.9549 67.0484 31.9549C65.3404 31.9549 63.745 31.6552 62.2618 31.056C60.7787 30.4568 59.4903 29.6178 58.3967 28.5391C57.3031 27.4604 56.4417 26.1945 55.8125 24.7414C55.1832 23.2882 54.8686 21.7076 54.8686 19.9998C54.8684 18.3819 55.1681 16.8538 55.7673 15.4156ZM62.0819 13.6402C60.8085 14.7039 59.9621 16.1197 59.5426 17.8874H73.5202C73.1307 16.1197 72.2992 14.7039 71.0258 13.6402C69.7523 12.5766 68.2617 12.0448 66.5539 12.0448C64.846 12.0448 63.3554 12.5766 62.0819 13.6402Z"
        fill="#87807b" />
      <path id="Vector_4"
        d="M86.6018 14.1573C85.643 15.206 85.1635 16.6292 85.1635 18.427V31.4608H80.6241V8.5394H85.1185V11.3709C85.6878 10.442 86.4294 9.70791 87.3432 9.1686C88.2571 8.6292 89.3432 8.3595 90.6017 8.3595H92.1747V12.5842H90.2871C88.789 12.5843 87.5605 13.1086 86.6018 14.1573Z"
        fill="#87807b" />
    </g>
  </g>
  <defs>
    <clipPath id="clip0_4429_72930">
      <rect width="92.1787" height="32" fill="white" />
    </clipPath>
  </defs>
</svg>