<svg xmlns="http://www.w3.org/2000/svg" width="216" height="33" viewBox="0 0 216 33" fill="none">
  <g clip-path="url(#clip0_4421_67205)">
    <path fill-rule="evenodd" clip-rule="evenodd" d="M70.8652 31.7032V22.3135C70.8652 18.8968 71.7132 16.3405 73.4216 14.9517C75.0193 13.354 77.1578 13.1327 79.5052 14.1037V10.3674C75.4495 9.2982 72.4629 10.5764 70.644 14.3126C70.644 12.8132 70.644 11.4367 70.5334 10.2568H66.7972C66.9078 12.4936 66.9078 19.6465 66.9078 31.7032H70.8529H70.8652ZM97.2277 31.7032C97.1171 30.634 97.0187 26.2587 97.0187 18.4667C97.0187 15.2589 96.269 12.9115 94.6713 11.7439C93.1719 10.4658 91.0457 9.82668 88.5877 9.82668C86.1296 9.82668 83.8928 10.4658 81.7543 11.6456V15.1729C83.5733 13.7841 85.6995 13.0344 87.9486 13.0344C90.1977 13.0344 91.8937 13.7841 92.6434 15.2712C93.1719 16.1193 93.3931 17.1885 93.3931 18.6879C87.838 18.2577 84.0034 18.8968 81.7666 20.6052C80.0583 21.8833 79.2102 23.4811 79.2102 25.4106C79.2102 27.4385 79.8493 29.0362 81.1275 30.2161C82.4057 31.396 84.2246 32.035 86.4615 32.035C89.5586 32.035 91.906 30.7569 93.7127 28.0899V31.7155H97.24L97.2277 31.7032ZM93.4914 21.4532C93.3808 21.7727 93.3808 22.2029 93.3808 22.7314C93.3808 24.7593 92.8523 26.357 91.6725 27.3156C90.5049 28.3849 89.0055 28.9133 87.4078 28.9133C86.1296 28.9133 85.0604 28.5938 84.3107 27.9547C83.561 27.3156 83.2414 26.4553 83.2414 25.4967C83.2414 24.538 83.6716 23.6777 84.409 23.0386C85.9084 21.6498 88.8949 21.1214 93.4791 21.4409L93.4914 21.4532ZM192.636 31.7032C192.526 30.634 192.526 26.2587 192.526 18.4667C192.526 15.2589 191.776 12.9115 190.178 11.7439C188.581 10.4658 186.553 9.82668 184.095 9.82668C181.637 9.82668 179.289 10.4658 177.163 11.6456V15.1729C179.08 13.7841 181.108 13.0344 183.456 13.0344C185.803 13.0344 187.302 13.7841 188.15 15.2712C188.581 16.1193 188.79 17.1885 188.79 18.6879C183.247 18.2577 179.4 18.8968 177.163 20.6052C175.455 21.8833 174.607 23.4811 174.607 25.4106C174.607 27.4385 175.246 29.0362 176.524 30.2161C177.913 31.396 179.621 32.035 181.858 32.035C184.955 32.035 187.413 30.7569 189.109 28.0899V31.7155H192.636V31.7032ZM188.9 21.4532C188.79 21.7727 188.79 22.2029 188.79 22.7314C188.79 24.7593 188.261 26.357 187.081 27.3156C185.914 28.3849 184.525 28.9133 182.817 28.9133C181.538 28.9133 180.58 28.5938 179.83 27.9547C179.08 27.3156 178.662 26.4553 178.662 25.4967C178.662 24.538 179.093 23.6777 179.83 23.0386C181.329 21.6498 184.414 21.1214 188.9 21.4409V21.4532ZM0 10.2568V14.9517H12.6958C13.9739 14.9517 14.9326 15.3818 15.5717 16.0209C16.3214 16.7706 16.6409 17.7293 16.6409 18.8968V25.4106C16.6409 28.5078 16.6409 30.634 16.5303 31.7032C18.2386 31.5926 19.8364 31.5926 21.4341 31.7032V19.7449C21.4341 19.1058 21.2252 18.5773 20.6844 18.0365L13.5315 10.9942C13.1013 10.4658 12.5729 10.2445 11.9338 10.2445H0V10.2568ZM45.2525 10.2568H33.4047C32.7656 10.2568 32.1265 10.4658 31.6964 11.0065L24.5435 18.0488C24.015 18.5773 23.7938 19.1181 23.7938 19.7571V31.7155C25.3915 31.6049 27.0015 31.6049 28.6976 31.7155C28.587 30.6462 28.587 28.5078 28.587 25.4229V18.9091C28.587 17.7293 29.0171 16.7706 29.6562 16.0332C30.4059 15.3941 31.3646 14.964 32.5321 14.964H45.2279V10.2691L45.2525 10.2568ZM100.325 31.7032H104.172V21.5638C104.172 18.5773 104.811 16.3405 106.089 15.05C107.269 13.7718 108.645 13.1327 110.255 13.1327C111.865 13.1327 113.033 13.6612 113.881 14.7305C114.631 15.7997 115.048 17.508 115.048 19.9538V31.6909H118.994V20.0644C118.994 16.2176 118.244 13.5506 116.757 12.0635C115.257 10.5641 113.451 9.82668 111.312 9.82668C109.813 9.82668 108.436 10.1462 107.146 10.7853C105.868 11.4244 104.798 12.2847 103.95 13.4523V10.2568H100.214C100.214 11.4244 100.214 12.6043 100.325 13.7841V31.7155V31.7032ZM149.842 28.6061C148.244 28.6061 146.634 28.1759 144.828 27.1067L144.619 30.634C146.327 31.482 148.244 31.9121 150.383 31.9121C152.62 31.9121 154.328 31.3837 155.827 30.2038C157.327 29.0362 158.064 27.4262 158.064 25.3983C158.064 23.0509 156.786 21.232 154.328 19.9538L151.022 18.2455C149.633 17.4958 148.883 16.6477 148.883 15.4679C148.883 14.9394 149.203 14.288 149.842 13.7595C150.37 13.1204 151.341 12.9115 152.62 12.9115C154.008 12.9115 155.397 13.3417 156.884 14.0914L157.314 10.7853C155.397 10.0356 153.787 9.71607 152.411 9.71607C149.854 9.71607 148.035 10.3552 146.646 11.4244C145.368 12.6043 144.729 14.0914 144.729 16.1193C144.729 17.1885 145.049 18.0365 145.688 18.8968C146.216 19.8555 147.187 20.6052 148.465 21.2443L152.091 23.2721C153.271 23.9112 153.799 24.6609 153.799 25.6196C153.799 26.5782 153.48 27.3279 152.73 27.8564C151.98 28.3849 151.022 28.6061 149.854 28.6061H149.842ZM158.482 13.1327H163.386V24.9805C163.386 27.4385 163.914 29.1468 165.094 30.3144C166.163 31.3837 167.761 31.9121 169.789 31.9121C170.748 31.9121 171.927 31.7032 173.206 31.3837V28.0776C172.358 28.5078 171.608 28.7167 170.858 28.7167C169.789 28.7167 168.941 28.3971 168.302 27.6474C167.663 27.0084 167.233 25.8285 167.233 24.1202V13.1327H172.997V10.2568H167.233V3.96426L163.386 5.35305V10.2568H158.482V13.1327ZM142.48 31.7032C142.271 30.5233 142.161 19.9661 142.161 0.117432H138.314V13.5629C137.675 12.4936 136.716 11.6456 135.438 11.0065C134.16 10.3674 132.881 9.93729 131.382 9.93729C128.506 9.93729 126.048 11.0065 124.229 12.9238C122.41 14.9517 121.562 17.6187 121.562 21.0353C121.562 24.452 122.312 27.2296 124.119 29.2575C125.716 31.1747 128.174 32.1334 131.271 32.1334C132.66 32.1334 134.049 31.8138 135.438 31.1747C136.716 30.425 137.785 29.577 138.535 28.2988C138.535 29.1468 138.646 30.2161 138.744 31.7155H142.48V31.7032ZM132.021 13.3417C133.84 13.3417 135.438 14.0914 136.605 15.4802C137.773 17.0779 138.314 18.8968 138.314 21.023C138.314 23.2598 137.785 25.0788 136.605 26.5782C135.327 28.0776 133.828 28.815 131.911 28.815C129.993 28.815 128.494 28.1759 127.326 26.7871C126.257 25.3983 125.618 23.4811 125.618 21.232C125.618 18.9829 126.257 17.0656 127.326 15.5785C128.494 14.0791 129.993 13.3417 132.021 13.3417ZM216.012 31.7032C215.803 30.5233 215.693 19.9661 215.693 0.117432H211.846V13.5629C211.207 12.4936 210.248 11.6456 208.97 11.0065C207.79 10.3674 206.414 9.93729 204.914 9.93729C202.038 9.93729 199.58 11.0065 197.761 12.9238C195.942 14.9517 195.094 17.6187 195.094 21.0353C195.094 24.452 195.844 27.2296 197.552 29.2575C199.261 31.1747 201.719 32.1334 204.804 32.1334C206.192 32.1334 207.581 31.8138 208.97 31.1747C210.248 30.425 211.317 29.577 212.067 28.2988C212.067 29.1468 212.178 30.2161 212.276 31.7155H216.012V31.7032ZM205.443 13.3417C207.36 13.3417 208.97 14.0914 210.138 15.4802C211.317 17.0779 211.957 18.8968 211.957 21.023C211.957 23.2598 211.317 25.0788 210.138 26.5782C208.97 28.0776 207.36 28.815 205.443 28.815C203.624 28.815 202.026 28.1759 200.858 26.7871C199.789 25.3983 199.15 23.4811 199.15 21.232C199.15 18.9829 199.789 17.0656 200.858 15.5785C202.038 14.0791 203.636 13.3417 205.443 13.3417Z" fill="white"/>
  </g>
  <defs>
    <clipPath id="clip0_4421_67205">
      <rect width="216" height="32.0159" fill="white" transform="translate(0 0.117432)"/>
    </clipPath>
  </defs>
</svg>