<svg width="214" height="40" viewBox="0 0 214 40" fill="none" xmlns="http://www.w3.org/2000/svg">
<path d="M0 0.26794C9.53492 1.04466 26.7835 -3.37462 29.6493 9.58859C30.8813 15.2131 29.3011 20.3555 24.614 23.6767C24.1051 24.0517 22.7392 24.3731 22.7927 24.9891L31.0688 39.104H21.1589L13.7935 26.5158H8.83855V39.104H0V0.26794ZM8.83855 19.2842H15.9362C16.6325 19.2842 18.5342 18.4004 19.1502 17.945C22.0428 15.8024 22.016 10.4457 18.8556 8.5976C18.5609 8.4369 16.6593 7.76731 16.4718 7.76731H8.83855V19.2842Z" fill="white"/>
<path d="M161.772 0L176.503 39.1039H167.397L164.451 30.9349H150.764L147.818 39.1039H138.979L153.71 0H161.745H161.772ZM161.772 23.5695L157.755 11.7847L153.469 23.5695H161.772Z" fill="white"/>
<path d="M179.985 39.3717L191.93 19.418L180.521 0.267822H190.297L197.26 12.5882L204.09 0.267822H213.732L202.215 19.418L214 39.1039V39.3717H204.09L196.591 26.2478L189.359 39.3717H179.985Z" fill="white"/>
<path d="M96.4204 16.7397L104.991 0.267822L114.098 12.8561L123.07 0.267822H132.31V39.1039H123.74V15.2666L114.499 27.0513L104.723 14.9987V39.1039H96.4204V16.7397Z" fill="white"/>
<path d="M65.8872 0.267822V7.7672H47.9423V15.8022H63.7446V23.3016H47.9423V31.4706L48.344 31.8723H59.727L55.9773 39.1039H39.3716V0.267822H65.8872Z" fill="white"/>
<path d="M95.885 0.267822L75.3956 39.1039H65.084L85.5733 0.267822H95.885Z" fill="white"/>
</svg>
