<svg width="216" height="41" viewBox="0 0 216 41" fill="none" xmlns="http://www.w3.org/2000/svg">
<path fill-rule="evenodd" clip-rule="evenodd" d="M5.60984 27.8385C7.82021 30.8341 12.4788 33.3143 18.2005 33.3143C22.8451 33.3143 26.1326 31.6841 26.1326 28.2983C26.1326 19.7155 0.39171 27.114 1.35699 11.9268H1.41295C7.20466 19.1581 34.6383 11.6481 34.6383 28.0196C34.6383 35.6968 28.1751 40.657 18.0326 40.657C9.91865 40.657 3.17565 37.6057 0 33.2028L5.60984 27.8385ZM18.0326 0.013916C26.3565 0.013916 31.3508 2.61942 34.6943 6.96658L29.1404 12.2612C26.7062 9.50242 23.8663 7.35671 18.0326 7.35671C12.5207 7.35671 9.97461 9.04263 9.97461 11.7596C9.97461 12.3727 10.1425 13.0554 10.3663 13.4455V13.5013C7.98808 13.2783 2.04249 12.3169 2.04249 8.37383C2.04249 4.41681 7.82021 0.013916 18.0326 0.013916ZM38.3736 27.727V0.585177H46.7674V26.8771C46.7674 30.6669 48.4181 33.3143 52.3212 33.3143C56.5181 33.3143 62.5337 30.5555 67.8637 25.5256L76.1316 17.7369H76.1876V32.3668C76.1876 37.7171 72.956 40.657 67.8637 40.657V26.7657C61.5684 36.4771 56.9238 40.657 50.0549 40.657C42.5705 40.657 38.3736 36.0312 38.3736 27.727ZM91.7301 7.35671C87.5332 7.35671 81.5176 10.1155 76.1876 15.1454L67.9197 22.9898H67.8637V8.3181C67.8637 2.95382 71.0953 0.013916 76.1876 0.013916V13.9053C82.4829 4.19388 87.1415 0.013916 93.9964 0.013916C101.481 0.013916 105.678 4.65367 105.678 12.9439V40.0997H97.2839V13.7938C97.2839 10.004 95.6332 7.35671 91.7301 7.35671ZM130.565 0.585177C138.847 0.585177 144.681 3.58081 144.681 10.1712C144.681 15.647 140.316 19.6597 132.146 19.9941V19.9384C134.412 18.8098 136.175 16.5526 136.175 13.5709C136.175 9.78109 133.461 7.63537 129.488 7.63537H119.276V40.0858H110.896V0.585177H130.565ZM121.318 21.694V21.6382H131.475C141.729 21.6382 144.401 26.0411 144.401 31.6283V40.0858H136.007V33.6626C136.007 27.2812 132.09 23.8397 121.318 21.694ZM148.71 27.727V0.585177H157.09V26.8911C157.09 30.6669 158.74 33.3143 162.644 33.3143C166.84 33.3143 172.856 30.5555 178.186 25.5256L186.468 17.7369H186.524V32.3668C186.524 37.7171 183.292 40.657 178.186 40.657V26.7796C171.891 36.4771 167.246 40.657 160.377 40.657C152.893 40.657 148.71 36.0312 148.71 27.727ZM202.052 7.35671C197.855 7.35671 191.84 10.1294 186.524 15.1454L178.242 22.9898H178.186V8.3181C178.186 2.95382 181.418 0.013916 186.524 0.013916V13.9053C192.805 4.19388 197.464 0.013916 204.319 0.013916C211.803 0.013916 216 4.65367 216 12.9439V40.0997H207.606V13.7938C207.606 10.004 205.969 7.35671 202.052 7.35671Z" fill="white"/>
</svg>
